G04 MADE WITH FRITZING*
G04 WWW.FRITZING.ORG*
G04 DOUBLE SIDED*
G04 HOLES PLATED*
G04 CONTOUR ON CENTER OF CONTOUR VECTOR*
%ASAXBY*%
%FSLAX23Y23*%
%MOIN*%
%OFA0B0*%
%SFA1.0B1.0*%
%ADD10C,0.076000*%
%ADD11C,0.126614*%
%ADD12C,0.094488*%
%ADD13C,0.075361*%
%ADD14C,0.024000*%
%LNCOPPER1*%
G90*
G70*
G54D10*
X717Y871D03*
X717Y471D03*
G54D11*
X802Y171D03*
G54D10*
X717Y671D03*
X717Y271D03*
G54D11*
X1307Y1171D03*
G54D10*
X717Y771D03*
X717Y571D03*
X717Y371D03*
G54D11*
X1307Y171D03*
X802Y1171D03*
G54D10*
X717Y1071D03*
X717Y971D03*
G54D12*
X517Y471D03*
G54D13*
X117Y1371D03*
X217Y1371D03*
X317Y1371D03*
X417Y1371D03*
X517Y1371D03*
X617Y1371D03*
X717Y1371D03*
X817Y1371D03*
X917Y1371D03*
X1017Y1371D03*
X1117Y1371D03*
X1217Y1371D03*
X1317Y1371D03*
X1417Y1371D03*
X1517Y1371D03*
X1617Y1371D03*
X1717Y1371D03*
X1817Y1371D03*
X1917Y1371D03*
X2017Y1371D03*
X2017Y1471D03*
X1917Y1471D03*
X1817Y1471D03*
X1717Y1471D03*
X1617Y1471D03*
X1517Y1471D03*
X1417Y1471D03*
X1317Y1471D03*
X1217Y1471D03*
X1117Y1471D03*
X1017Y1471D03*
X917Y1471D03*
X817Y1471D03*
X717Y1471D03*
X617Y1471D03*
X517Y1471D03*
X417Y1471D03*
X317Y1471D03*
X217Y1471D03*
X117Y1471D03*
G54D12*
X317Y1071D03*
X217Y971D03*
X117Y271D03*
G54D14*
X517Y498D02*
X517Y1339D01*
D02*
X317Y1098D02*
X317Y1339D01*
D02*
X217Y998D02*
X217Y1339D01*
D02*
X117Y298D02*
X117Y1339D01*
G04 End of Copper1*
M02*