G04 MADE WITH FRITZING*
G04 WWW.FRITZING.ORG*
G04 DOUBLE SIDED*
G04 HOLES PLATED*
G04 CONTOUR ON CENTER OF CONTOUR VECTOR*
%ASAXBY*%
%FSLAX23Y23*%
%MOIN*%
%OFA0B0*%
%SFA1.0B1.0*%
%ADD10R,2.111560X1.567060X2.095560X1.551060*%
%ADD11C,0.008000*%
%ADD12R,0.001000X0.001000*%
%LNSILK1*%
G90*
G70*
G54D11*
X4Y1563D02*
X2108Y1563D01*
X2108Y4D01*
X4Y4D01*
X4Y1563D01*
D02*
G54D12*
X749Y1271D02*
X813Y1271D01*
X1293Y1271D02*
X1313Y1271D01*
X741Y1270D02*
X821Y1270D01*
X1285Y1270D02*
X1321Y1270D01*
X736Y1269D02*
X827Y1269D01*
X1280Y1269D02*
X1326Y1269D01*
X731Y1268D02*
X831Y1268D01*
X1275Y1268D02*
X1330Y1268D01*
X728Y1267D02*
X834Y1267D01*
X1272Y1267D02*
X1334Y1267D01*
X725Y1266D02*
X838Y1266D01*
X1269Y1266D02*
X1337Y1266D01*
X722Y1265D02*
X840Y1265D01*
X1266Y1265D02*
X1340Y1265D01*
X719Y1264D02*
X843Y1264D01*
X1263Y1264D02*
X1343Y1264D01*
X717Y1263D02*
X748Y1263D01*
X814Y1263D02*
X845Y1263D01*
X1261Y1263D02*
X1292Y1263D01*
X1314Y1263D02*
X1345Y1263D01*
X715Y1262D02*
X740Y1262D01*
X822Y1262D02*
X848Y1262D01*
X1259Y1262D02*
X1284Y1262D01*
X1322Y1262D02*
X1347Y1262D01*
X713Y1261D02*
X735Y1261D01*
X827Y1261D02*
X850Y1261D01*
X1257Y1261D02*
X1279Y1261D01*
X1327Y1261D02*
X1349Y1261D01*
X711Y1260D02*
X731Y1260D01*
X831Y1260D02*
X852Y1260D01*
X1254Y1260D02*
X1275Y1260D01*
X1331Y1260D02*
X1351Y1260D01*
X709Y1259D02*
X728Y1259D01*
X835Y1259D02*
X854Y1259D01*
X1253Y1259D02*
X1272Y1259D01*
X1334Y1259D02*
X1353Y1259D01*
X707Y1258D02*
X725Y1258D01*
X838Y1258D02*
X856Y1258D01*
X1251Y1258D02*
X1269Y1258D01*
X1337Y1258D02*
X1355Y1258D01*
X705Y1257D02*
X722Y1257D01*
X840Y1257D02*
X857Y1257D01*
X1249Y1257D02*
X1266Y1257D01*
X1340Y1257D02*
X1357Y1257D01*
X704Y1256D02*
X720Y1256D01*
X843Y1256D02*
X859Y1256D01*
X1247Y1256D02*
X1264Y1256D01*
X1342Y1256D02*
X1358Y1256D01*
X702Y1255D02*
X717Y1255D01*
X845Y1255D02*
X860Y1255D01*
X1246Y1255D02*
X1261Y1255D01*
X1344Y1255D02*
X1360Y1255D01*
X700Y1254D02*
X715Y1254D01*
X847Y1254D02*
X862Y1254D01*
X1244Y1254D02*
X1259Y1254D01*
X1347Y1254D02*
X1361Y1254D01*
X699Y1253D02*
X713Y1253D01*
X849Y1253D02*
X863Y1253D01*
X1243Y1253D02*
X1257Y1253D01*
X1349Y1253D02*
X1363Y1253D01*
X698Y1252D02*
X711Y1252D01*
X851Y1252D02*
X865Y1252D01*
X1241Y1252D02*
X1255Y1252D01*
X1350Y1252D02*
X1364Y1252D01*
X696Y1251D02*
X710Y1251D01*
X853Y1251D02*
X866Y1251D01*
X1240Y1251D02*
X1254Y1251D01*
X1352Y1251D02*
X1366Y1251D01*
X695Y1250D02*
X708Y1250D01*
X854Y1250D02*
X867Y1250D01*
X1239Y1250D02*
X1252Y1250D01*
X1354Y1250D02*
X1367Y1250D01*
X694Y1249D02*
X706Y1249D01*
X856Y1249D02*
X869Y1249D01*
X1238Y1249D02*
X1250Y1249D01*
X1356Y1249D02*
X1368Y1249D01*
X692Y1248D02*
X705Y1248D01*
X858Y1248D02*
X870Y1248D01*
X1236Y1248D02*
X1249Y1248D01*
X1357Y1248D02*
X1369Y1248D01*
X691Y1247D02*
X703Y1247D01*
X859Y1247D02*
X871Y1247D01*
X1235Y1247D02*
X1247Y1247D01*
X1359Y1247D02*
X1371Y1247D01*
X690Y1246D02*
X702Y1246D01*
X860Y1246D02*
X872Y1246D01*
X1234Y1246D02*
X1246Y1246D01*
X1360Y1246D02*
X1372Y1246D01*
X689Y1245D02*
X701Y1245D01*
X862Y1245D02*
X873Y1245D01*
X1233Y1245D02*
X1245Y1245D01*
X1361Y1245D02*
X1373Y1245D01*
X688Y1244D02*
X699Y1244D01*
X863Y1244D02*
X874Y1244D01*
X1232Y1244D02*
X1243Y1244D01*
X1363Y1244D02*
X1374Y1244D01*
X687Y1243D02*
X698Y1243D01*
X865Y1243D02*
X876Y1243D01*
X1231Y1243D02*
X1242Y1243D01*
X1364Y1243D02*
X1375Y1243D01*
X686Y1242D02*
X697Y1242D01*
X866Y1242D02*
X877Y1242D01*
X1230Y1242D02*
X1241Y1242D01*
X1365Y1242D02*
X1376Y1242D01*
X685Y1241D02*
X696Y1241D01*
X867Y1241D02*
X878Y1241D01*
X1229Y1241D02*
X1240Y1241D01*
X1366Y1241D02*
X1377Y1241D01*
X684Y1240D02*
X694Y1240D01*
X868Y1240D02*
X879Y1240D01*
X1228Y1240D02*
X1238Y1240D01*
X1367Y1240D02*
X1378Y1240D01*
X683Y1239D02*
X693Y1239D01*
X869Y1239D02*
X879Y1239D01*
X1227Y1239D02*
X1237Y1239D01*
X1368Y1239D02*
X1379Y1239D01*
X682Y1238D02*
X692Y1238D01*
X870Y1238D02*
X880Y1238D01*
X1226Y1238D02*
X1236Y1238D01*
X1370Y1238D02*
X1380Y1238D01*
X681Y1237D02*
X691Y1237D01*
X871Y1237D02*
X881Y1237D01*
X1225Y1237D02*
X1235Y1237D01*
X1371Y1237D02*
X1381Y1237D01*
X680Y1236D02*
X690Y1236D01*
X872Y1236D02*
X882Y1236D01*
X1224Y1236D02*
X1234Y1236D01*
X1372Y1236D02*
X1382Y1236D01*
X679Y1235D02*
X689Y1235D01*
X873Y1235D02*
X883Y1235D01*
X1223Y1235D02*
X1233Y1235D01*
X1373Y1235D02*
X1382Y1235D01*
X679Y1234D02*
X688Y1234D01*
X874Y1234D02*
X884Y1234D01*
X1223Y1234D02*
X1232Y1234D01*
X1374Y1234D02*
X1383Y1234D01*
X678Y1233D02*
X687Y1233D01*
X875Y1233D02*
X885Y1233D01*
X1222Y1233D02*
X1231Y1233D01*
X1374Y1233D02*
X1384Y1233D01*
X677Y1232D02*
X687Y1232D01*
X876Y1232D02*
X885Y1232D01*
X1221Y1232D02*
X1230Y1232D01*
X1375Y1232D02*
X1385Y1232D01*
X676Y1231D02*
X686Y1231D01*
X877Y1231D02*
X886Y1231D01*
X1220Y1231D02*
X1230Y1231D01*
X1376Y1231D02*
X1386Y1231D01*
X676Y1230D02*
X685Y1230D01*
X878Y1230D02*
X887Y1230D01*
X1220Y1230D02*
X1229Y1230D01*
X1377Y1230D02*
X1386Y1230D01*
X675Y1229D02*
X684Y1229D01*
X879Y1229D02*
X887Y1229D01*
X1219Y1229D02*
X1228Y1229D01*
X1378Y1229D02*
X1387Y1229D01*
X674Y1228D02*
X683Y1228D01*
X879Y1228D02*
X888Y1228D01*
X1218Y1228D02*
X1227Y1228D01*
X1379Y1228D02*
X1388Y1228D01*
X673Y1227D02*
X682Y1227D01*
X880Y1227D02*
X889Y1227D01*
X1217Y1227D02*
X1226Y1227D01*
X1379Y1227D02*
X1388Y1227D01*
X673Y1226D02*
X682Y1226D01*
X881Y1226D02*
X890Y1226D01*
X1217Y1226D02*
X1226Y1226D01*
X1380Y1226D02*
X1389Y1226D01*
X672Y1225D02*
X681Y1225D01*
X881Y1225D02*
X890Y1225D01*
X1216Y1225D02*
X1225Y1225D01*
X1381Y1225D02*
X1390Y1225D01*
X672Y1224D02*
X680Y1224D01*
X882Y1224D02*
X891Y1224D01*
X1216Y1224D02*
X1224Y1224D01*
X1382Y1224D02*
X1390Y1224D01*
X671Y1223D02*
X679Y1223D01*
X883Y1223D02*
X891Y1223D01*
X1215Y1223D02*
X1223Y1223D01*
X1382Y1223D02*
X1391Y1223D01*
X670Y1222D02*
X679Y1222D01*
X884Y1222D02*
X892Y1222D01*
X1214Y1222D02*
X1223Y1222D01*
X1383Y1222D02*
X1391Y1222D01*
X670Y1221D02*
X678Y1221D01*
X884Y1221D02*
X893Y1221D01*
X1214Y1221D02*
X1222Y1221D01*
X1384Y1221D02*
X1392Y1221D01*
X669Y1220D02*
X677Y1220D01*
X885Y1220D02*
X893Y1220D01*
X1213Y1220D02*
X1221Y1220D01*
X1384Y1220D02*
X1393Y1220D01*
X669Y1219D02*
X677Y1219D01*
X885Y1219D02*
X894Y1219D01*
X1213Y1219D02*
X1221Y1219D01*
X1385Y1219D02*
X1393Y1219D01*
X668Y1218D02*
X676Y1218D01*
X886Y1218D02*
X894Y1218D01*
X1212Y1218D02*
X1220Y1218D01*
X1386Y1218D02*
X1394Y1218D01*
X668Y1217D02*
X676Y1217D01*
X887Y1217D02*
X895Y1217D01*
X1212Y1217D02*
X1220Y1217D01*
X1386Y1217D02*
X1394Y1217D01*
X667Y1216D02*
X675Y1216D01*
X887Y1216D02*
X895Y1216D01*
X1211Y1216D02*
X1219Y1216D01*
X1387Y1216D02*
X1395Y1216D01*
X667Y1215D02*
X675Y1215D01*
X888Y1215D02*
X896Y1215D01*
X1211Y1215D02*
X1219Y1215D01*
X1387Y1215D02*
X1395Y1215D01*
X666Y1214D02*
X674Y1214D01*
X888Y1214D02*
X896Y1214D01*
X1210Y1214D02*
X1218Y1214D01*
X1388Y1214D02*
X1396Y1214D01*
X666Y1213D02*
X673Y1213D01*
X889Y1213D02*
X897Y1213D01*
X1210Y1213D02*
X1217Y1213D01*
X1388Y1213D02*
X1396Y1213D01*
X665Y1212D02*
X673Y1212D01*
X889Y1212D02*
X897Y1212D01*
X1209Y1212D02*
X1217Y1212D01*
X1389Y1212D02*
X1397Y1212D01*
X665Y1211D02*
X673Y1211D01*
X890Y1211D02*
X898Y1211D01*
X1209Y1211D02*
X1216Y1211D01*
X1389Y1211D02*
X1397Y1211D01*
X664Y1210D02*
X672Y1210D01*
X890Y1210D02*
X898Y1210D01*
X1208Y1210D02*
X1216Y1210D01*
X1390Y1210D02*
X1397Y1210D01*
X664Y1209D02*
X672Y1209D01*
X891Y1209D02*
X898Y1209D01*
X1208Y1209D02*
X1216Y1209D01*
X1390Y1209D02*
X1398Y1209D01*
X664Y1208D02*
X671Y1208D01*
X891Y1208D02*
X899Y1208D01*
X1208Y1208D02*
X1215Y1208D01*
X1391Y1208D02*
X1398Y1208D01*
X663Y1207D02*
X671Y1207D01*
X892Y1207D02*
X899Y1207D01*
X1207Y1207D02*
X1215Y1207D01*
X1391Y1207D02*
X1399Y1207D01*
X663Y1206D02*
X670Y1206D01*
X892Y1206D02*
X900Y1206D01*
X1207Y1206D02*
X1214Y1206D01*
X1392Y1206D02*
X1399Y1206D01*
X662Y1205D02*
X670Y1205D01*
X893Y1205D02*
X900Y1205D01*
X1206Y1205D02*
X1214Y1205D01*
X1392Y1205D02*
X1399Y1205D01*
X662Y1204D02*
X669Y1204D01*
X893Y1204D02*
X900Y1204D01*
X1206Y1204D02*
X1213Y1204D01*
X1392Y1204D02*
X1400Y1204D01*
X662Y1203D02*
X669Y1203D01*
X893Y1203D02*
X901Y1203D01*
X1206Y1203D02*
X1213Y1203D01*
X1393Y1203D02*
X1400Y1203D01*
X661Y1202D02*
X669Y1202D01*
X894Y1202D02*
X901Y1202D01*
X1205Y1202D02*
X1213Y1202D01*
X1393Y1202D02*
X1400Y1202D01*
X661Y1201D02*
X668Y1201D01*
X894Y1201D02*
X901Y1201D01*
X1205Y1201D02*
X1212Y1201D01*
X1394Y1201D02*
X1401Y1201D01*
X661Y1200D02*
X668Y1200D01*
X894Y1200D02*
X902Y1200D01*
X1205Y1200D02*
X1212Y1200D01*
X1394Y1200D02*
X1401Y1200D01*
X660Y1199D02*
X668Y1199D01*
X895Y1199D02*
X902Y1199D01*
X1204Y1199D02*
X1212Y1199D01*
X1394Y1199D02*
X1401Y1199D01*
X660Y1198D02*
X667Y1198D01*
X895Y1198D02*
X902Y1198D01*
X1204Y1198D02*
X1211Y1198D01*
X1394Y1198D02*
X1402Y1198D01*
X660Y1197D02*
X667Y1197D01*
X895Y1197D02*
X902Y1197D01*
X1204Y1197D02*
X1211Y1197D01*
X1395Y1197D02*
X1402Y1197D01*
X660Y1196D02*
X667Y1196D01*
X896Y1196D02*
X903Y1196D01*
X1204Y1196D02*
X1211Y1196D01*
X1395Y1196D02*
X1402Y1196D01*
X659Y1195D02*
X667Y1195D01*
X896Y1195D02*
X903Y1195D01*
X1203Y1195D02*
X1211Y1195D01*
X1395Y1195D02*
X1402Y1195D01*
X659Y1194D02*
X666Y1194D01*
X896Y1194D02*
X903Y1194D01*
X1203Y1194D02*
X1210Y1194D01*
X1396Y1194D02*
X1403Y1194D01*
X659Y1193D02*
X666Y1193D01*
X896Y1193D02*
X903Y1193D01*
X1203Y1193D02*
X1210Y1193D01*
X1396Y1193D02*
X1403Y1193D01*
X659Y1192D02*
X666Y1192D01*
X897Y1192D02*
X904Y1192D01*
X1203Y1192D02*
X1210Y1192D01*
X1396Y1192D02*
X1403Y1192D01*
X659Y1191D02*
X666Y1191D01*
X897Y1191D02*
X904Y1191D01*
X1203Y1191D02*
X1210Y1191D01*
X1396Y1191D02*
X1403Y1191D01*
X658Y1190D02*
X665Y1190D01*
X897Y1190D02*
X904Y1190D01*
X1202Y1190D02*
X1209Y1190D01*
X1396Y1190D02*
X1404Y1190D01*
X658Y1189D02*
X665Y1189D01*
X897Y1189D02*
X904Y1189D01*
X1202Y1189D02*
X1209Y1189D01*
X1397Y1189D02*
X1404Y1189D01*
X658Y1188D02*
X665Y1188D01*
X897Y1188D02*
X904Y1188D01*
X1202Y1188D02*
X1209Y1188D01*
X1397Y1188D02*
X1404Y1188D01*
X658Y1187D02*
X665Y1187D01*
X898Y1187D02*
X905Y1187D01*
X1202Y1187D02*
X1209Y1187D01*
X1397Y1187D02*
X1404Y1187D01*
X658Y1186D02*
X665Y1186D01*
X898Y1186D02*
X905Y1186D01*
X1202Y1186D02*
X1209Y1186D01*
X1397Y1186D02*
X1404Y1186D01*
X657Y1185D02*
X664Y1185D01*
X898Y1185D02*
X905Y1185D01*
X1201Y1185D02*
X1208Y1185D01*
X1397Y1185D02*
X1404Y1185D01*
X657Y1184D02*
X664Y1184D01*
X898Y1184D02*
X905Y1184D01*
X1201Y1184D02*
X1208Y1184D01*
X1398Y1184D02*
X1405Y1184D01*
X657Y1183D02*
X664Y1183D01*
X898Y1183D02*
X905Y1183D01*
X1201Y1183D02*
X1208Y1183D01*
X1398Y1183D02*
X1405Y1183D01*
X657Y1182D02*
X664Y1182D01*
X898Y1182D02*
X905Y1182D01*
X1201Y1182D02*
X1208Y1182D01*
X1398Y1182D02*
X1405Y1182D01*
X657Y1181D02*
X664Y1181D01*
X898Y1181D02*
X905Y1181D01*
X1201Y1181D02*
X1208Y1181D01*
X1398Y1181D02*
X1405Y1181D01*
X657Y1180D02*
X664Y1180D01*
X898Y1180D02*
X905Y1180D01*
X1201Y1180D02*
X1208Y1180D01*
X1398Y1180D02*
X1405Y1180D01*
X657Y1179D02*
X664Y1179D01*
X899Y1179D02*
X906Y1179D01*
X1201Y1179D02*
X1208Y1179D01*
X1398Y1179D02*
X1405Y1179D01*
X657Y1178D02*
X664Y1178D01*
X899Y1178D02*
X906Y1178D01*
X1201Y1178D02*
X1208Y1178D01*
X1398Y1178D02*
X1405Y1178D01*
X657Y1177D02*
X664Y1177D01*
X899Y1177D02*
X906Y1177D01*
X1201Y1177D02*
X1208Y1177D01*
X1398Y1177D02*
X1405Y1177D01*
X657Y1176D02*
X664Y1176D01*
X899Y1176D02*
X906Y1176D01*
X1201Y1176D02*
X1208Y1176D01*
X1398Y1176D02*
X1405Y1176D01*
X657Y1175D02*
X664Y1175D01*
X899Y1175D02*
X906Y1175D01*
X1201Y1175D02*
X1208Y1175D01*
X1398Y1175D02*
X1405Y1175D01*
X657Y1174D02*
X664Y1174D01*
X899Y1174D02*
X906Y1174D01*
X1201Y1174D02*
X1208Y1174D01*
X1398Y1174D02*
X1405Y1174D01*
X656Y1173D02*
X663Y1173D01*
X899Y1173D02*
X906Y1173D01*
X1200Y1173D02*
X1207Y1173D01*
X1398Y1173D02*
X1405Y1173D01*
X656Y1172D02*
X663Y1172D01*
X899Y1172D02*
X906Y1172D01*
X1200Y1172D02*
X1207Y1172D01*
X1398Y1172D02*
X1405Y1172D01*
X656Y1171D02*
X663Y1171D01*
X899Y1171D02*
X906Y1171D01*
X1200Y1171D02*
X1207Y1171D01*
X1398Y1171D02*
X1405Y1171D01*
X657Y1170D02*
X663Y1170D01*
X899Y1170D02*
X906Y1170D01*
X1200Y1170D02*
X1207Y1170D01*
X1398Y1170D02*
X1405Y1170D01*
X657Y1169D02*
X664Y1169D01*
X899Y1169D02*
X906Y1169D01*
X1200Y1169D02*
X1208Y1169D01*
X1398Y1169D02*
X1405Y1169D01*
X656Y1168D02*
X664Y1168D01*
X899Y1168D02*
X906Y1168D01*
X1200Y1168D02*
X1208Y1168D01*
X1398Y1168D02*
X1405Y1168D01*
X657Y1167D02*
X664Y1167D01*
X899Y1167D02*
X906Y1167D01*
X1201Y1167D02*
X1208Y1167D01*
X1398Y1167D02*
X1405Y1167D01*
X657Y1166D02*
X664Y1166D01*
X899Y1166D02*
X906Y1166D01*
X1201Y1166D02*
X1208Y1166D01*
X1398Y1166D02*
X1405Y1166D01*
X657Y1165D02*
X664Y1165D01*
X899Y1165D02*
X906Y1165D01*
X1201Y1165D02*
X1208Y1165D01*
X1398Y1165D02*
X1405Y1165D01*
X657Y1164D02*
X664Y1164D01*
X899Y1164D02*
X906Y1164D01*
X1201Y1164D02*
X1208Y1164D01*
X1398Y1164D02*
X1405Y1164D01*
X657Y1163D02*
X664Y1163D01*
X899Y1163D02*
X906Y1163D01*
X1201Y1163D02*
X1208Y1163D01*
X1398Y1163D02*
X1405Y1163D01*
X657Y1162D02*
X664Y1162D01*
X899Y1162D02*
X906Y1162D01*
X1201Y1162D02*
X1208Y1162D01*
X1398Y1162D02*
X1405Y1162D01*
X657Y1161D02*
X664Y1161D01*
X899Y1161D02*
X906Y1161D01*
X1201Y1161D02*
X1208Y1161D01*
X1398Y1161D02*
X1405Y1161D01*
X657Y1160D02*
X664Y1160D01*
X899Y1160D02*
X906Y1160D01*
X1201Y1160D02*
X1208Y1160D01*
X1398Y1160D02*
X1405Y1160D01*
X657Y1159D02*
X664Y1159D01*
X899Y1159D02*
X906Y1159D01*
X1201Y1159D02*
X1208Y1159D01*
X1398Y1159D02*
X1405Y1159D01*
X657Y1158D02*
X664Y1158D01*
X899Y1158D02*
X906Y1158D01*
X1201Y1158D02*
X1208Y1158D01*
X1398Y1158D02*
X1405Y1158D01*
X657Y1157D02*
X664Y1157D01*
X899Y1157D02*
X906Y1157D01*
X1201Y1157D02*
X1208Y1157D01*
X1398Y1157D02*
X1405Y1157D01*
X657Y1156D02*
X664Y1156D01*
X899Y1156D02*
X906Y1156D01*
X1201Y1156D02*
X1208Y1156D01*
X1398Y1156D02*
X1405Y1156D01*
X657Y1155D02*
X664Y1155D01*
X899Y1155D02*
X906Y1155D01*
X1201Y1155D02*
X1208Y1155D01*
X1398Y1155D02*
X1405Y1155D01*
X657Y1154D02*
X664Y1154D01*
X899Y1154D02*
X906Y1154D01*
X1201Y1154D02*
X1208Y1154D01*
X1398Y1154D02*
X1405Y1154D01*
X657Y1153D02*
X664Y1153D01*
X899Y1153D02*
X906Y1153D01*
X1201Y1153D02*
X1208Y1153D01*
X1398Y1153D02*
X1405Y1153D01*
X657Y1152D02*
X664Y1152D01*
X899Y1152D02*
X906Y1152D01*
X1201Y1152D02*
X1208Y1152D01*
X1398Y1152D02*
X1405Y1152D01*
X657Y1151D02*
X664Y1151D01*
X899Y1151D02*
X906Y1151D01*
X1201Y1151D02*
X1208Y1151D01*
X1398Y1151D02*
X1405Y1151D01*
X657Y1150D02*
X664Y1150D01*
X899Y1150D02*
X906Y1150D01*
X1201Y1150D02*
X1208Y1150D01*
X1398Y1150D02*
X1405Y1150D01*
X657Y1149D02*
X664Y1149D01*
X899Y1149D02*
X906Y1149D01*
X1201Y1149D02*
X1208Y1149D01*
X1398Y1149D02*
X1405Y1149D01*
X657Y1148D02*
X664Y1148D01*
X899Y1148D02*
X906Y1148D01*
X1201Y1148D02*
X1208Y1148D01*
X1398Y1148D02*
X1405Y1148D01*
X657Y1147D02*
X664Y1147D01*
X899Y1147D02*
X1208Y1147D01*
X1398Y1147D02*
X1405Y1147D01*
X657Y1146D02*
X664Y1146D01*
X899Y1146D02*
X1208Y1146D01*
X1398Y1146D02*
X1405Y1146D01*
X657Y1145D02*
X664Y1145D01*
X899Y1145D02*
X1208Y1145D01*
X1398Y1145D02*
X1405Y1145D01*
X657Y1144D02*
X664Y1144D01*
X899Y1144D02*
X1208Y1144D01*
X1398Y1144D02*
X1405Y1144D01*
X657Y1143D02*
X664Y1143D01*
X899Y1143D02*
X1208Y1143D01*
X1398Y1143D02*
X1405Y1143D01*
X657Y1142D02*
X664Y1142D01*
X899Y1142D02*
X1208Y1142D01*
X1398Y1142D02*
X1405Y1142D01*
X657Y1141D02*
X664Y1141D01*
X899Y1141D02*
X1208Y1141D01*
X1398Y1141D02*
X1405Y1141D01*
X657Y1140D02*
X664Y1140D01*
X899Y1140D02*
X1208Y1140D01*
X1398Y1140D02*
X1405Y1140D01*
X657Y1139D02*
X664Y1139D01*
X1398Y1139D02*
X1405Y1139D01*
X657Y1138D02*
X664Y1138D01*
X1398Y1138D02*
X1405Y1138D01*
X657Y1137D02*
X664Y1137D01*
X1398Y1137D02*
X1405Y1137D01*
X657Y1136D02*
X664Y1136D01*
X1398Y1136D02*
X1405Y1136D01*
X657Y1135D02*
X664Y1135D01*
X1398Y1135D02*
X1405Y1135D01*
X657Y1134D02*
X664Y1134D01*
X1398Y1134D02*
X1405Y1134D01*
X657Y1133D02*
X664Y1133D01*
X1398Y1133D02*
X1405Y1133D01*
X657Y1132D02*
X664Y1132D01*
X1398Y1132D02*
X1405Y1132D01*
X657Y1131D02*
X664Y1131D01*
X1398Y1131D02*
X1405Y1131D01*
X657Y1130D02*
X664Y1130D01*
X1398Y1130D02*
X1405Y1130D01*
X657Y1129D02*
X664Y1129D01*
X1398Y1129D02*
X1405Y1129D01*
X657Y1128D02*
X664Y1128D01*
X1398Y1128D02*
X1405Y1128D01*
X657Y1127D02*
X664Y1127D01*
X1398Y1127D02*
X1405Y1127D01*
X657Y1126D02*
X664Y1126D01*
X1398Y1126D02*
X1405Y1126D01*
X1642Y1126D02*
X1642Y1126D01*
X1692Y1126D02*
X1717Y1126D01*
X1759Y1126D02*
X1770Y1126D01*
X1792Y1126D02*
X1806Y1126D01*
X1842Y1126D02*
X1867Y1126D01*
X1895Y1126D02*
X1917Y1126D01*
X1942Y1126D02*
X1942Y1126D01*
X1970Y1126D02*
X1970Y1126D01*
X657Y1125D02*
X664Y1125D01*
X1398Y1125D02*
X1405Y1125D01*
X1640Y1125D02*
X1644Y1125D01*
X1690Y1125D02*
X1719Y1125D01*
X1755Y1125D02*
X1772Y1125D01*
X1790Y1125D02*
X1809Y1125D01*
X1840Y1125D02*
X1869Y1125D01*
X1892Y1125D02*
X1919Y1125D01*
X1940Y1125D02*
X1944Y1125D01*
X1968Y1125D02*
X1972Y1125D01*
X657Y1124D02*
X664Y1124D01*
X1398Y1124D02*
X1405Y1124D01*
X1639Y1124D02*
X1645Y1124D01*
X1689Y1124D02*
X1721Y1124D01*
X1753Y1124D02*
X1772Y1124D01*
X1789Y1124D02*
X1811Y1124D01*
X1839Y1124D02*
X1870Y1124D01*
X1891Y1124D02*
X1920Y1124D01*
X1939Y1124D02*
X1945Y1124D01*
X1967Y1124D02*
X1972Y1124D01*
X657Y1123D02*
X664Y1123D01*
X1398Y1123D02*
X1405Y1123D01*
X1639Y1123D02*
X1645Y1123D01*
X1689Y1123D02*
X1721Y1123D01*
X1752Y1123D02*
X1773Y1123D01*
X1789Y1123D02*
X1812Y1123D01*
X1839Y1123D02*
X1871Y1123D01*
X1890Y1123D02*
X1921Y1123D01*
X1939Y1123D02*
X1945Y1123D01*
X1967Y1123D02*
X1973Y1123D01*
X657Y1122D02*
X664Y1122D01*
X1398Y1122D02*
X1405Y1122D01*
X1639Y1122D02*
X1645Y1122D01*
X1689Y1122D02*
X1722Y1122D01*
X1751Y1122D02*
X1773Y1122D01*
X1789Y1122D02*
X1813Y1122D01*
X1839Y1122D02*
X1872Y1122D01*
X1890Y1122D02*
X1922Y1122D01*
X1939Y1122D02*
X1945Y1122D01*
X1967Y1122D02*
X1973Y1122D01*
X657Y1121D02*
X664Y1121D01*
X1398Y1121D02*
X1405Y1121D01*
X1639Y1121D02*
X1645Y1121D01*
X1690Y1121D02*
X1722Y1121D01*
X1751Y1121D02*
X1772Y1121D01*
X1790Y1121D02*
X1813Y1121D01*
X1839Y1121D02*
X1872Y1121D01*
X1889Y1121D02*
X1922Y1121D01*
X1939Y1121D02*
X1945Y1121D01*
X1967Y1121D02*
X1973Y1121D01*
X657Y1120D02*
X664Y1120D01*
X1398Y1120D02*
X1405Y1120D01*
X1639Y1120D02*
X1645Y1120D01*
X1690Y1120D02*
X1723Y1120D01*
X1750Y1120D02*
X1771Y1120D01*
X1790Y1120D02*
X1814Y1120D01*
X1840Y1120D02*
X1873Y1120D01*
X1889Y1120D02*
X1923Y1120D01*
X1939Y1120D02*
X1945Y1120D01*
X1967Y1120D02*
X1973Y1120D01*
X657Y1119D02*
X664Y1119D01*
X1398Y1119D02*
X1405Y1119D01*
X1639Y1119D02*
X1645Y1119D01*
X1716Y1119D02*
X1723Y1119D01*
X1749Y1119D02*
X1758Y1119D01*
X1796Y1119D02*
X1802Y1119D01*
X1806Y1119D02*
X1814Y1119D01*
X1866Y1119D02*
X1873Y1119D01*
X1889Y1119D02*
X1895Y1119D01*
X1916Y1119D02*
X1923Y1119D01*
X1939Y1119D02*
X1945Y1119D01*
X1967Y1119D02*
X1973Y1119D01*
X657Y1118D02*
X664Y1118D01*
X1398Y1118D02*
X1405Y1118D01*
X1639Y1118D02*
X1645Y1118D01*
X1717Y1118D02*
X1723Y1118D01*
X1748Y1118D02*
X1756Y1118D01*
X1796Y1118D02*
X1802Y1118D01*
X1808Y1118D02*
X1815Y1118D01*
X1867Y1118D02*
X1873Y1118D01*
X1889Y1118D02*
X1895Y1118D01*
X1917Y1118D02*
X1923Y1118D01*
X1939Y1118D02*
X1945Y1118D01*
X1967Y1118D02*
X1973Y1118D01*
X657Y1117D02*
X664Y1117D01*
X1398Y1117D02*
X1405Y1117D01*
X1639Y1117D02*
X1645Y1117D01*
X1717Y1117D02*
X1723Y1117D01*
X1748Y1117D02*
X1755Y1117D01*
X1796Y1117D02*
X1802Y1117D01*
X1809Y1117D02*
X1815Y1117D01*
X1867Y1117D02*
X1873Y1117D01*
X1889Y1117D02*
X1895Y1117D01*
X1917Y1117D02*
X1923Y1117D01*
X1939Y1117D02*
X1945Y1117D01*
X1967Y1117D02*
X1973Y1117D01*
X657Y1116D02*
X664Y1116D01*
X1398Y1116D02*
X1405Y1116D01*
X1639Y1116D02*
X1645Y1116D01*
X1717Y1116D02*
X1723Y1116D01*
X1747Y1116D02*
X1755Y1116D01*
X1796Y1116D02*
X1802Y1116D01*
X1809Y1116D02*
X1816Y1116D01*
X1867Y1116D02*
X1873Y1116D01*
X1889Y1116D02*
X1895Y1116D01*
X1917Y1116D02*
X1923Y1116D01*
X1939Y1116D02*
X1945Y1116D01*
X1967Y1116D02*
X1973Y1116D01*
X657Y1115D02*
X664Y1115D01*
X1398Y1115D02*
X1405Y1115D01*
X1639Y1115D02*
X1645Y1115D01*
X1717Y1115D02*
X1723Y1115D01*
X1746Y1115D02*
X1754Y1115D01*
X1796Y1115D02*
X1802Y1115D01*
X1810Y1115D02*
X1816Y1115D01*
X1867Y1115D02*
X1873Y1115D01*
X1889Y1115D02*
X1895Y1115D01*
X1917Y1115D02*
X1923Y1115D01*
X1939Y1115D02*
X1945Y1115D01*
X1967Y1115D02*
X1973Y1115D01*
X657Y1114D02*
X664Y1114D01*
X1398Y1114D02*
X1405Y1114D01*
X1639Y1114D02*
X1645Y1114D01*
X1717Y1114D02*
X1723Y1114D01*
X1745Y1114D02*
X1753Y1114D01*
X1796Y1114D02*
X1802Y1114D01*
X1810Y1114D02*
X1817Y1114D01*
X1867Y1114D02*
X1873Y1114D01*
X1889Y1114D02*
X1895Y1114D01*
X1917Y1114D02*
X1923Y1114D01*
X1939Y1114D02*
X1945Y1114D01*
X1967Y1114D02*
X1973Y1114D01*
X657Y1113D02*
X664Y1113D01*
X1398Y1113D02*
X1405Y1113D01*
X1639Y1113D02*
X1645Y1113D01*
X1717Y1113D02*
X1723Y1113D01*
X1744Y1113D02*
X1752Y1113D01*
X1796Y1113D02*
X1802Y1113D01*
X1811Y1113D02*
X1817Y1113D01*
X1867Y1113D02*
X1873Y1113D01*
X1889Y1113D02*
X1895Y1113D01*
X1917Y1113D02*
X1923Y1113D01*
X1939Y1113D02*
X1945Y1113D01*
X1967Y1113D02*
X1973Y1113D01*
X657Y1112D02*
X664Y1112D01*
X1398Y1112D02*
X1405Y1112D01*
X1639Y1112D02*
X1645Y1112D01*
X1717Y1112D02*
X1723Y1112D01*
X1744Y1112D02*
X1752Y1112D01*
X1796Y1112D02*
X1802Y1112D01*
X1811Y1112D02*
X1818Y1112D01*
X1867Y1112D02*
X1873Y1112D01*
X1889Y1112D02*
X1895Y1112D01*
X1917Y1112D02*
X1923Y1112D01*
X1939Y1112D02*
X1945Y1112D01*
X1967Y1112D02*
X1973Y1112D01*
X657Y1111D02*
X664Y1111D01*
X1398Y1111D02*
X1405Y1111D01*
X1639Y1111D02*
X1645Y1111D01*
X1717Y1111D02*
X1723Y1111D01*
X1743Y1111D02*
X1751Y1111D01*
X1796Y1111D02*
X1802Y1111D01*
X1812Y1111D02*
X1818Y1111D01*
X1867Y1111D02*
X1873Y1111D01*
X1889Y1111D02*
X1895Y1111D01*
X1917Y1111D02*
X1923Y1111D01*
X1939Y1111D02*
X1945Y1111D01*
X1967Y1111D02*
X1973Y1111D01*
X657Y1110D02*
X664Y1110D01*
X1398Y1110D02*
X1405Y1110D01*
X1639Y1110D02*
X1645Y1110D01*
X1717Y1110D02*
X1723Y1110D01*
X1742Y1110D02*
X1750Y1110D01*
X1796Y1110D02*
X1802Y1110D01*
X1812Y1110D02*
X1819Y1110D01*
X1867Y1110D02*
X1873Y1110D01*
X1889Y1110D02*
X1895Y1110D01*
X1917Y1110D02*
X1923Y1110D01*
X1939Y1110D02*
X1945Y1110D01*
X1967Y1110D02*
X1973Y1110D01*
X657Y1109D02*
X664Y1109D01*
X1398Y1109D02*
X1405Y1109D01*
X1639Y1109D02*
X1645Y1109D01*
X1717Y1109D02*
X1723Y1109D01*
X1741Y1109D02*
X1749Y1109D01*
X1796Y1109D02*
X1802Y1109D01*
X1813Y1109D02*
X1819Y1109D01*
X1867Y1109D02*
X1873Y1109D01*
X1889Y1109D02*
X1895Y1109D01*
X1917Y1109D02*
X1923Y1109D01*
X1939Y1109D02*
X1945Y1109D01*
X1967Y1109D02*
X1973Y1109D01*
X657Y1108D02*
X664Y1108D01*
X1398Y1108D02*
X1405Y1108D01*
X1639Y1108D02*
X1645Y1108D01*
X1717Y1108D02*
X1723Y1108D01*
X1741Y1108D02*
X1748Y1108D01*
X1796Y1108D02*
X1802Y1108D01*
X1813Y1108D02*
X1820Y1108D01*
X1867Y1108D02*
X1873Y1108D01*
X1889Y1108D02*
X1895Y1108D01*
X1917Y1108D02*
X1923Y1108D01*
X1939Y1108D02*
X1945Y1108D01*
X1967Y1108D02*
X1973Y1108D01*
X657Y1107D02*
X664Y1107D01*
X1398Y1107D02*
X1405Y1107D01*
X1639Y1107D02*
X1645Y1107D01*
X1717Y1107D02*
X1723Y1107D01*
X1740Y1107D02*
X1748Y1107D01*
X1796Y1107D02*
X1802Y1107D01*
X1814Y1107D02*
X1820Y1107D01*
X1867Y1107D02*
X1873Y1107D01*
X1889Y1107D02*
X1895Y1107D01*
X1917Y1107D02*
X1923Y1107D01*
X1939Y1107D02*
X1945Y1107D01*
X1967Y1107D02*
X1973Y1107D01*
X657Y1106D02*
X664Y1106D01*
X1398Y1106D02*
X1405Y1106D01*
X1639Y1106D02*
X1645Y1106D01*
X1717Y1106D02*
X1723Y1106D01*
X1740Y1106D02*
X1747Y1106D01*
X1796Y1106D02*
X1802Y1106D01*
X1814Y1106D02*
X1821Y1106D01*
X1867Y1106D02*
X1873Y1106D01*
X1889Y1106D02*
X1895Y1106D01*
X1917Y1106D02*
X1923Y1106D01*
X1939Y1106D02*
X1945Y1106D01*
X1967Y1106D02*
X1973Y1106D01*
X657Y1105D02*
X664Y1105D01*
X1398Y1105D02*
X1405Y1105D01*
X1639Y1105D02*
X1645Y1105D01*
X1716Y1105D02*
X1723Y1105D01*
X1740Y1105D02*
X1746Y1105D01*
X1796Y1105D02*
X1802Y1105D01*
X1815Y1105D02*
X1821Y1105D01*
X1867Y1105D02*
X1873Y1105D01*
X1889Y1105D02*
X1895Y1105D01*
X1917Y1105D02*
X1923Y1105D01*
X1939Y1105D02*
X1945Y1105D01*
X1967Y1105D02*
X1973Y1105D01*
X657Y1104D02*
X664Y1104D01*
X1398Y1104D02*
X1405Y1104D01*
X1639Y1104D02*
X1645Y1104D01*
X1716Y1104D02*
X1722Y1104D01*
X1739Y1104D02*
X1746Y1104D01*
X1796Y1104D02*
X1802Y1104D01*
X1815Y1104D02*
X1822Y1104D01*
X1867Y1104D02*
X1873Y1104D01*
X1889Y1104D02*
X1895Y1104D01*
X1917Y1104D02*
X1923Y1104D01*
X1939Y1104D02*
X1945Y1104D01*
X1967Y1104D02*
X1973Y1104D01*
X657Y1103D02*
X664Y1103D01*
X1398Y1103D02*
X1405Y1103D01*
X1639Y1103D02*
X1645Y1103D01*
X1715Y1103D02*
X1722Y1103D01*
X1739Y1103D02*
X1745Y1103D01*
X1796Y1103D02*
X1802Y1103D01*
X1816Y1103D02*
X1822Y1103D01*
X1867Y1103D02*
X1873Y1103D01*
X1889Y1103D02*
X1895Y1103D01*
X1917Y1103D02*
X1923Y1103D01*
X1939Y1103D02*
X1945Y1103D01*
X1967Y1103D02*
X1973Y1103D01*
X657Y1102D02*
X664Y1102D01*
X1398Y1102D02*
X1405Y1102D01*
X1639Y1102D02*
X1645Y1102D01*
X1698Y1102D02*
X1722Y1102D01*
X1739Y1102D02*
X1745Y1102D01*
X1796Y1102D02*
X1802Y1102D01*
X1816Y1102D02*
X1822Y1102D01*
X1844Y1102D02*
X1873Y1102D01*
X1889Y1102D02*
X1895Y1102D01*
X1917Y1102D02*
X1923Y1102D01*
X1939Y1102D02*
X1973Y1102D01*
X2041Y1102D02*
X2071Y1102D01*
X657Y1101D02*
X664Y1101D01*
X1398Y1101D02*
X1405Y1101D01*
X1639Y1101D02*
X1645Y1101D01*
X1697Y1101D02*
X1721Y1101D01*
X1739Y1101D02*
X1745Y1101D01*
X1796Y1101D02*
X1802Y1101D01*
X1816Y1101D02*
X1822Y1101D01*
X1842Y1101D02*
X1872Y1101D01*
X1889Y1101D02*
X1895Y1101D01*
X1917Y1101D02*
X1923Y1101D01*
X1939Y1101D02*
X1973Y1101D01*
X2040Y1101D02*
X2072Y1101D01*
X657Y1100D02*
X664Y1100D01*
X1398Y1100D02*
X1405Y1100D01*
X1639Y1100D02*
X1645Y1100D01*
X1696Y1100D02*
X1721Y1100D01*
X1739Y1100D02*
X1745Y1100D01*
X1796Y1100D02*
X1802Y1100D01*
X1817Y1100D02*
X1823Y1100D01*
X1841Y1100D02*
X1872Y1100D01*
X1889Y1100D02*
X1895Y1100D01*
X1917Y1100D02*
X1923Y1100D01*
X1939Y1100D02*
X1973Y1100D01*
X2039Y1100D02*
X2072Y1100D01*
X657Y1099D02*
X664Y1099D01*
X1398Y1099D02*
X1405Y1099D01*
X1639Y1099D02*
X1645Y1099D01*
X1696Y1099D02*
X1720Y1099D01*
X1739Y1099D02*
X1745Y1099D01*
X1796Y1099D02*
X1802Y1099D01*
X1817Y1099D02*
X1823Y1099D01*
X1840Y1099D02*
X1872Y1099D01*
X1889Y1099D02*
X1895Y1099D01*
X1917Y1099D02*
X1923Y1099D01*
X1939Y1099D02*
X1973Y1099D01*
X2039Y1099D02*
X2073Y1099D01*
X657Y1098D02*
X664Y1098D01*
X1398Y1098D02*
X1405Y1098D01*
X1639Y1098D02*
X1645Y1098D01*
X1696Y1098D02*
X1721Y1098D01*
X1739Y1098D02*
X1745Y1098D01*
X1796Y1098D02*
X1802Y1098D01*
X1816Y1098D02*
X1823Y1098D01*
X1840Y1098D02*
X1871Y1098D01*
X1889Y1098D02*
X1895Y1098D01*
X1917Y1098D02*
X1923Y1098D01*
X1939Y1098D02*
X1973Y1098D01*
X2039Y1098D02*
X2073Y1098D01*
X657Y1097D02*
X664Y1097D01*
X1398Y1097D02*
X1405Y1097D01*
X1639Y1097D02*
X1645Y1097D01*
X1697Y1097D02*
X1721Y1097D01*
X1739Y1097D02*
X1745Y1097D01*
X1796Y1097D02*
X1802Y1097D01*
X1816Y1097D02*
X1822Y1097D01*
X1839Y1097D02*
X1870Y1097D01*
X1889Y1097D02*
X1895Y1097D01*
X1917Y1097D02*
X1923Y1097D01*
X1939Y1097D02*
X1973Y1097D01*
X2039Y1097D02*
X2073Y1097D01*
X657Y1096D02*
X664Y1096D01*
X1398Y1096D02*
X1405Y1096D01*
X1639Y1096D02*
X1645Y1096D01*
X1698Y1096D02*
X1722Y1096D01*
X1739Y1096D02*
X1745Y1096D01*
X1758Y1096D02*
X1773Y1096D01*
X1796Y1096D02*
X1802Y1096D01*
X1816Y1096D02*
X1822Y1096D01*
X1839Y1096D02*
X1868Y1096D01*
X1889Y1096D02*
X1895Y1096D01*
X1917Y1096D02*
X1923Y1096D01*
X1939Y1096D02*
X1973Y1096D01*
X2039Y1096D02*
X2073Y1096D01*
X657Y1095D02*
X664Y1095D01*
X1398Y1095D02*
X1405Y1095D01*
X1639Y1095D02*
X1645Y1095D01*
X1715Y1095D02*
X1722Y1095D01*
X1739Y1095D02*
X1745Y1095D01*
X1757Y1095D02*
X1773Y1095D01*
X1796Y1095D02*
X1802Y1095D01*
X1816Y1095D02*
X1822Y1095D01*
X1839Y1095D02*
X1845Y1095D01*
X1889Y1095D02*
X1895Y1095D01*
X1917Y1095D02*
X1923Y1095D01*
X1939Y1095D02*
X1945Y1095D01*
X1967Y1095D02*
X1973Y1095D01*
X2039Y1095D02*
X2072Y1095D01*
X657Y1094D02*
X664Y1094D01*
X1398Y1094D02*
X1405Y1094D01*
X1639Y1094D02*
X1645Y1094D01*
X1716Y1094D02*
X1722Y1094D01*
X1739Y1094D02*
X1745Y1094D01*
X1756Y1094D02*
X1773Y1094D01*
X1796Y1094D02*
X1802Y1094D01*
X1815Y1094D02*
X1822Y1094D01*
X1839Y1094D02*
X1845Y1094D01*
X1889Y1094D02*
X1895Y1094D01*
X1917Y1094D02*
X1923Y1094D01*
X1939Y1094D02*
X1945Y1094D01*
X1967Y1094D02*
X1973Y1094D01*
X2040Y1094D02*
X2072Y1094D01*
X657Y1093D02*
X664Y1093D01*
X1398Y1093D02*
X1405Y1093D01*
X1639Y1093D02*
X1645Y1093D01*
X1716Y1093D02*
X1723Y1093D01*
X1739Y1093D02*
X1745Y1093D01*
X1756Y1093D02*
X1773Y1093D01*
X1796Y1093D02*
X1802Y1093D01*
X1815Y1093D02*
X1821Y1093D01*
X1839Y1093D02*
X1845Y1093D01*
X1889Y1093D02*
X1895Y1093D01*
X1917Y1093D02*
X1923Y1093D01*
X1939Y1093D02*
X1945Y1093D01*
X1967Y1093D02*
X1973Y1093D01*
X2041Y1093D02*
X2071Y1093D01*
X657Y1092D02*
X664Y1092D01*
X1398Y1092D02*
X1405Y1092D01*
X1639Y1092D02*
X1645Y1092D01*
X1717Y1092D02*
X1723Y1092D01*
X1739Y1092D02*
X1745Y1092D01*
X1757Y1092D02*
X1773Y1092D01*
X1796Y1092D02*
X1802Y1092D01*
X1814Y1092D02*
X1821Y1092D01*
X1839Y1092D02*
X1845Y1092D01*
X1889Y1092D02*
X1895Y1092D01*
X1917Y1092D02*
X1923Y1092D01*
X1939Y1092D02*
X1945Y1092D01*
X1967Y1092D02*
X1973Y1092D01*
X657Y1091D02*
X664Y1091D01*
X1398Y1091D02*
X1405Y1091D01*
X1639Y1091D02*
X1645Y1091D01*
X1717Y1091D02*
X1723Y1091D01*
X1739Y1091D02*
X1745Y1091D01*
X1757Y1091D02*
X1773Y1091D01*
X1796Y1091D02*
X1802Y1091D01*
X1814Y1091D02*
X1820Y1091D01*
X1839Y1091D02*
X1845Y1091D01*
X1889Y1091D02*
X1895Y1091D01*
X1917Y1091D02*
X1923Y1091D01*
X1939Y1091D02*
X1945Y1091D01*
X1967Y1091D02*
X1973Y1091D01*
X657Y1090D02*
X664Y1090D01*
X1398Y1090D02*
X1405Y1090D01*
X1639Y1090D02*
X1645Y1090D01*
X1717Y1090D02*
X1723Y1090D01*
X1739Y1090D02*
X1745Y1090D01*
X1758Y1090D02*
X1773Y1090D01*
X1796Y1090D02*
X1802Y1090D01*
X1813Y1090D02*
X1820Y1090D01*
X1839Y1090D02*
X1845Y1090D01*
X1889Y1090D02*
X1895Y1090D01*
X1917Y1090D02*
X1923Y1090D01*
X1939Y1090D02*
X1945Y1090D01*
X1967Y1090D02*
X1973Y1090D01*
X657Y1089D02*
X664Y1089D01*
X1398Y1089D02*
X1405Y1089D01*
X1639Y1089D02*
X1645Y1089D01*
X1717Y1089D02*
X1723Y1089D01*
X1739Y1089D02*
X1745Y1089D01*
X1767Y1089D02*
X1773Y1089D01*
X1796Y1089D02*
X1802Y1089D01*
X1813Y1089D02*
X1819Y1089D01*
X1839Y1089D02*
X1845Y1089D01*
X1889Y1089D02*
X1895Y1089D01*
X1917Y1089D02*
X1923Y1089D01*
X1939Y1089D02*
X1945Y1089D01*
X1967Y1089D02*
X1973Y1089D01*
X657Y1088D02*
X664Y1088D01*
X1398Y1088D02*
X1405Y1088D01*
X1639Y1088D02*
X1645Y1088D01*
X1717Y1088D02*
X1723Y1088D01*
X1739Y1088D02*
X1745Y1088D01*
X1767Y1088D02*
X1773Y1088D01*
X1796Y1088D02*
X1802Y1088D01*
X1812Y1088D02*
X1819Y1088D01*
X1839Y1088D02*
X1845Y1088D01*
X1889Y1088D02*
X1895Y1088D01*
X1917Y1088D02*
X1923Y1088D01*
X1939Y1088D02*
X1945Y1088D01*
X1967Y1088D02*
X1973Y1088D01*
X657Y1087D02*
X664Y1087D01*
X1398Y1087D02*
X1405Y1087D01*
X1639Y1087D02*
X1645Y1087D01*
X1717Y1087D02*
X1723Y1087D01*
X1739Y1087D02*
X1745Y1087D01*
X1767Y1087D02*
X1773Y1087D01*
X1796Y1087D02*
X1802Y1087D01*
X1812Y1087D02*
X1819Y1087D01*
X1839Y1087D02*
X1845Y1087D01*
X1889Y1087D02*
X1895Y1087D01*
X1917Y1087D02*
X1923Y1087D01*
X1939Y1087D02*
X1945Y1087D01*
X1967Y1087D02*
X1973Y1087D01*
X657Y1086D02*
X664Y1086D01*
X1398Y1086D02*
X1405Y1086D01*
X1639Y1086D02*
X1645Y1086D01*
X1717Y1086D02*
X1723Y1086D01*
X1739Y1086D02*
X1745Y1086D01*
X1767Y1086D02*
X1773Y1086D01*
X1796Y1086D02*
X1802Y1086D01*
X1811Y1086D02*
X1818Y1086D01*
X1839Y1086D02*
X1845Y1086D01*
X1889Y1086D02*
X1895Y1086D01*
X1917Y1086D02*
X1923Y1086D01*
X1939Y1086D02*
X1945Y1086D01*
X1967Y1086D02*
X1973Y1086D01*
X657Y1085D02*
X664Y1085D01*
X1398Y1085D02*
X1405Y1085D01*
X1639Y1085D02*
X1645Y1085D01*
X1717Y1085D02*
X1723Y1085D01*
X1739Y1085D02*
X1745Y1085D01*
X1767Y1085D02*
X1773Y1085D01*
X1796Y1085D02*
X1802Y1085D01*
X1811Y1085D02*
X1818Y1085D01*
X1839Y1085D02*
X1845Y1085D01*
X1889Y1085D02*
X1895Y1085D01*
X1917Y1085D02*
X1923Y1085D01*
X1939Y1085D02*
X1945Y1085D01*
X1967Y1085D02*
X1973Y1085D01*
X657Y1084D02*
X664Y1084D01*
X1398Y1084D02*
X1405Y1084D01*
X1639Y1084D02*
X1645Y1084D01*
X1717Y1084D02*
X1723Y1084D01*
X1739Y1084D02*
X1745Y1084D01*
X1767Y1084D02*
X1773Y1084D01*
X1796Y1084D02*
X1802Y1084D01*
X1810Y1084D02*
X1817Y1084D01*
X1839Y1084D02*
X1845Y1084D01*
X1889Y1084D02*
X1895Y1084D01*
X1917Y1084D02*
X1923Y1084D01*
X1939Y1084D02*
X1945Y1084D01*
X1967Y1084D02*
X1973Y1084D01*
X657Y1083D02*
X664Y1083D01*
X1398Y1083D02*
X1405Y1083D01*
X1639Y1083D02*
X1645Y1083D01*
X1717Y1083D02*
X1723Y1083D01*
X1739Y1083D02*
X1745Y1083D01*
X1767Y1083D02*
X1773Y1083D01*
X1796Y1083D02*
X1802Y1083D01*
X1810Y1083D02*
X1817Y1083D01*
X1839Y1083D02*
X1845Y1083D01*
X1889Y1083D02*
X1895Y1083D01*
X1917Y1083D02*
X1923Y1083D01*
X1939Y1083D02*
X1945Y1083D01*
X1967Y1083D02*
X1973Y1083D01*
X657Y1082D02*
X664Y1082D01*
X1398Y1082D02*
X1405Y1082D01*
X1639Y1082D02*
X1645Y1082D01*
X1717Y1082D02*
X1723Y1082D01*
X1739Y1082D02*
X1745Y1082D01*
X1767Y1082D02*
X1773Y1082D01*
X1796Y1082D02*
X1802Y1082D01*
X1809Y1082D02*
X1816Y1082D01*
X1839Y1082D02*
X1845Y1082D01*
X1889Y1082D02*
X1895Y1082D01*
X1917Y1082D02*
X1923Y1082D01*
X1939Y1082D02*
X1945Y1082D01*
X1967Y1082D02*
X1973Y1082D01*
X657Y1081D02*
X664Y1081D01*
X1398Y1081D02*
X1405Y1081D01*
X1639Y1081D02*
X1645Y1081D01*
X1717Y1081D02*
X1723Y1081D01*
X1739Y1081D02*
X1745Y1081D01*
X1766Y1081D02*
X1773Y1081D01*
X1796Y1081D02*
X1802Y1081D01*
X1809Y1081D02*
X1816Y1081D01*
X1839Y1081D02*
X1845Y1081D01*
X1889Y1081D02*
X1895Y1081D01*
X1917Y1081D02*
X1923Y1081D01*
X1939Y1081D02*
X1945Y1081D01*
X1967Y1081D02*
X1973Y1081D01*
X657Y1080D02*
X664Y1080D01*
X1398Y1080D02*
X1405Y1080D01*
X1639Y1080D02*
X1645Y1080D01*
X1717Y1080D02*
X1723Y1080D01*
X1739Y1080D02*
X1746Y1080D01*
X1765Y1080D02*
X1772Y1080D01*
X1796Y1080D02*
X1802Y1080D01*
X1808Y1080D02*
X1815Y1080D01*
X1839Y1080D02*
X1845Y1080D01*
X1889Y1080D02*
X1895Y1080D01*
X1917Y1080D02*
X1923Y1080D01*
X1939Y1080D02*
X1945Y1080D01*
X1967Y1080D02*
X1973Y1080D01*
X657Y1079D02*
X664Y1079D01*
X1398Y1079D02*
X1405Y1079D01*
X1639Y1079D02*
X1646Y1079D01*
X1716Y1079D02*
X1723Y1079D01*
X1740Y1079D02*
X1748Y1079D01*
X1763Y1079D02*
X1772Y1079D01*
X1796Y1079D02*
X1802Y1079D01*
X1806Y1079D02*
X1815Y1079D01*
X1839Y1079D02*
X1845Y1079D01*
X1889Y1079D02*
X1895Y1079D01*
X1916Y1079D02*
X1923Y1079D01*
X1939Y1079D02*
X1945Y1079D01*
X1967Y1079D02*
X1973Y1079D01*
X657Y1078D02*
X664Y1078D01*
X1398Y1078D02*
X1405Y1078D01*
X1639Y1078D02*
X1671Y1078D01*
X1690Y1078D02*
X1723Y1078D01*
X1740Y1078D02*
X1772Y1078D01*
X1790Y1078D02*
X1814Y1078D01*
X1839Y1078D02*
X1871Y1078D01*
X1889Y1078D02*
X1923Y1078D01*
X1939Y1078D02*
X1945Y1078D01*
X1967Y1078D02*
X1973Y1078D01*
X657Y1077D02*
X664Y1077D01*
X1398Y1077D02*
X1405Y1077D01*
X1639Y1077D02*
X1672Y1077D01*
X1690Y1077D02*
X1722Y1077D01*
X1741Y1077D02*
X1771Y1077D01*
X1789Y1077D02*
X1813Y1077D01*
X1839Y1077D02*
X1872Y1077D01*
X1889Y1077D02*
X1922Y1077D01*
X1939Y1077D02*
X1945Y1077D01*
X1967Y1077D02*
X1973Y1077D01*
X657Y1076D02*
X664Y1076D01*
X1398Y1076D02*
X1405Y1076D01*
X1639Y1076D02*
X1673Y1076D01*
X1689Y1076D02*
X1722Y1076D01*
X1741Y1076D02*
X1770Y1076D01*
X1789Y1076D02*
X1813Y1076D01*
X1839Y1076D02*
X1873Y1076D01*
X1890Y1076D02*
X1922Y1076D01*
X1939Y1076D02*
X1945Y1076D01*
X1967Y1076D02*
X1973Y1076D01*
X657Y1075D02*
X664Y1075D01*
X1398Y1075D02*
X1405Y1075D01*
X1639Y1075D02*
X1673Y1075D01*
X1689Y1075D02*
X1721Y1075D01*
X1742Y1075D02*
X1769Y1075D01*
X1789Y1075D02*
X1812Y1075D01*
X1839Y1075D02*
X1873Y1075D01*
X1890Y1075D02*
X1921Y1075D01*
X1939Y1075D02*
X1945Y1075D01*
X1967Y1075D02*
X1973Y1075D01*
X657Y1074D02*
X664Y1074D01*
X1398Y1074D02*
X1405Y1074D01*
X1639Y1074D02*
X1672Y1074D01*
X1689Y1074D02*
X1721Y1074D01*
X1743Y1074D02*
X1768Y1074D01*
X1789Y1074D02*
X1811Y1074D01*
X1839Y1074D02*
X1872Y1074D01*
X1891Y1074D02*
X1920Y1074D01*
X1939Y1074D02*
X1945Y1074D01*
X1967Y1074D02*
X1972Y1074D01*
X657Y1073D02*
X664Y1073D01*
X1398Y1073D02*
X1405Y1073D01*
X1639Y1073D02*
X1672Y1073D01*
X1690Y1073D02*
X1719Y1073D01*
X1745Y1073D02*
X1767Y1073D01*
X1790Y1073D02*
X1809Y1073D01*
X1839Y1073D02*
X1872Y1073D01*
X1892Y1073D02*
X1919Y1073D01*
X1940Y1073D02*
X1944Y1073D01*
X1968Y1073D02*
X1972Y1073D01*
X657Y1072D02*
X664Y1072D01*
X1398Y1072D02*
X1405Y1072D01*
X1639Y1072D02*
X1670Y1072D01*
X1692Y1072D02*
X1716Y1072D01*
X1749Y1072D02*
X1763Y1072D01*
X1792Y1072D02*
X1805Y1072D01*
X1839Y1072D02*
X1870Y1072D01*
X1895Y1072D02*
X1916Y1072D01*
X1942Y1072D02*
X1942Y1072D01*
X657Y1071D02*
X664Y1071D01*
X1398Y1071D02*
X1405Y1071D01*
X657Y1070D02*
X664Y1070D01*
X1398Y1070D02*
X1405Y1070D01*
X657Y1069D02*
X664Y1069D01*
X1398Y1069D02*
X1405Y1069D01*
X657Y1068D02*
X664Y1068D01*
X1398Y1068D02*
X1405Y1068D01*
X657Y1067D02*
X664Y1067D01*
X1398Y1067D02*
X1405Y1067D01*
X657Y1066D02*
X664Y1066D01*
X1398Y1066D02*
X1405Y1066D01*
X657Y1065D02*
X664Y1065D01*
X1398Y1065D02*
X1405Y1065D01*
X657Y1064D02*
X664Y1064D01*
X1398Y1064D02*
X1405Y1064D01*
X657Y1063D02*
X664Y1063D01*
X1398Y1063D02*
X1405Y1063D01*
X657Y1062D02*
X664Y1062D01*
X1398Y1062D02*
X1405Y1062D01*
X657Y1061D02*
X664Y1061D01*
X1398Y1061D02*
X1405Y1061D01*
X657Y1060D02*
X664Y1060D01*
X1398Y1060D02*
X1405Y1060D01*
X657Y1059D02*
X664Y1059D01*
X1398Y1059D02*
X1405Y1059D01*
X657Y1058D02*
X664Y1058D01*
X1398Y1058D02*
X1405Y1058D01*
X657Y1057D02*
X664Y1057D01*
X1398Y1057D02*
X1405Y1057D01*
X657Y1056D02*
X664Y1056D01*
X1398Y1056D02*
X1405Y1056D01*
X657Y1055D02*
X664Y1055D01*
X1398Y1055D02*
X1405Y1055D01*
X657Y1054D02*
X664Y1054D01*
X1398Y1054D02*
X1405Y1054D01*
X657Y1053D02*
X664Y1053D01*
X1398Y1053D02*
X1405Y1053D01*
X657Y1052D02*
X664Y1052D01*
X1398Y1052D02*
X1405Y1052D01*
X657Y1051D02*
X664Y1051D01*
X1398Y1051D02*
X1405Y1051D01*
X657Y1050D02*
X664Y1050D01*
X1398Y1050D02*
X1405Y1050D01*
X657Y1049D02*
X664Y1049D01*
X1398Y1049D02*
X1405Y1049D01*
X657Y1048D02*
X664Y1048D01*
X1398Y1048D02*
X1405Y1048D01*
X657Y1047D02*
X664Y1047D01*
X1398Y1047D02*
X1405Y1047D01*
X657Y1046D02*
X664Y1046D01*
X1398Y1046D02*
X1405Y1046D01*
X657Y1045D02*
X664Y1045D01*
X1398Y1045D02*
X1405Y1045D01*
X657Y1044D02*
X664Y1044D01*
X1398Y1044D02*
X1405Y1044D01*
X657Y1043D02*
X664Y1043D01*
X1398Y1043D02*
X1405Y1043D01*
X657Y1042D02*
X664Y1042D01*
X1398Y1042D02*
X1405Y1042D01*
X657Y1041D02*
X664Y1041D01*
X1398Y1041D02*
X1405Y1041D01*
X657Y1040D02*
X664Y1040D01*
X1398Y1040D02*
X1405Y1040D01*
X657Y1039D02*
X664Y1039D01*
X1398Y1039D02*
X1405Y1039D01*
X657Y1038D02*
X664Y1038D01*
X1398Y1038D02*
X1405Y1038D01*
X657Y1037D02*
X664Y1037D01*
X1398Y1037D02*
X1405Y1037D01*
X657Y1036D02*
X664Y1036D01*
X1398Y1036D02*
X1405Y1036D01*
X657Y1035D02*
X664Y1035D01*
X1398Y1035D02*
X1405Y1035D01*
X657Y1034D02*
X664Y1034D01*
X1398Y1034D02*
X1405Y1034D01*
X657Y1033D02*
X664Y1033D01*
X1398Y1033D02*
X1405Y1033D01*
X657Y1032D02*
X664Y1032D01*
X1398Y1032D02*
X1405Y1032D01*
X657Y1031D02*
X664Y1031D01*
X1398Y1031D02*
X1405Y1031D01*
X657Y1030D02*
X664Y1030D01*
X1398Y1030D02*
X1405Y1030D01*
X657Y1029D02*
X664Y1029D01*
X1398Y1029D02*
X1405Y1029D01*
X657Y1028D02*
X664Y1028D01*
X1398Y1028D02*
X1405Y1028D01*
X657Y1027D02*
X664Y1027D01*
X1398Y1027D02*
X1405Y1027D01*
X657Y1026D02*
X664Y1026D01*
X1398Y1026D02*
X1405Y1026D01*
X657Y1025D02*
X664Y1025D01*
X1398Y1025D02*
X1405Y1025D01*
X657Y1024D02*
X664Y1024D01*
X1398Y1024D02*
X1405Y1024D01*
X657Y1023D02*
X664Y1023D01*
X1398Y1023D02*
X1405Y1023D01*
X657Y1022D02*
X664Y1022D01*
X1398Y1022D02*
X1405Y1022D01*
X657Y1021D02*
X664Y1021D01*
X1398Y1021D02*
X1405Y1021D01*
X657Y1020D02*
X664Y1020D01*
X1398Y1020D02*
X1405Y1020D01*
X657Y1019D02*
X664Y1019D01*
X1398Y1019D02*
X1405Y1019D01*
X657Y1018D02*
X664Y1018D01*
X1398Y1018D02*
X1405Y1018D01*
X657Y1017D02*
X664Y1017D01*
X1398Y1017D02*
X1405Y1017D01*
X657Y1016D02*
X664Y1016D01*
X1398Y1016D02*
X1405Y1016D01*
X657Y1015D02*
X664Y1015D01*
X1398Y1015D02*
X1405Y1015D01*
X657Y1014D02*
X664Y1014D01*
X1398Y1014D02*
X1405Y1014D01*
X657Y1013D02*
X664Y1013D01*
X1398Y1013D02*
X1405Y1013D01*
X657Y1012D02*
X664Y1012D01*
X1398Y1012D02*
X1405Y1012D01*
X657Y1011D02*
X664Y1011D01*
X1398Y1011D02*
X1405Y1011D01*
X657Y1010D02*
X664Y1010D01*
X1398Y1010D02*
X1405Y1010D01*
X657Y1009D02*
X664Y1009D01*
X1398Y1009D02*
X1405Y1009D01*
X657Y1008D02*
X664Y1008D01*
X1398Y1008D02*
X1405Y1008D01*
X657Y1007D02*
X664Y1007D01*
X1398Y1007D02*
X1405Y1007D01*
X657Y1006D02*
X664Y1006D01*
X1398Y1006D02*
X1405Y1006D01*
X657Y1005D02*
X664Y1005D01*
X1398Y1005D02*
X1405Y1005D01*
X657Y1004D02*
X664Y1004D01*
X1398Y1004D02*
X1405Y1004D01*
X657Y1003D02*
X664Y1003D01*
X1398Y1003D02*
X1405Y1003D01*
X657Y1002D02*
X664Y1002D01*
X1398Y1002D02*
X1405Y1002D01*
X657Y1001D02*
X664Y1001D01*
X1398Y1001D02*
X1405Y1001D01*
X657Y1000D02*
X664Y1000D01*
X1398Y1000D02*
X1405Y1000D01*
X657Y999D02*
X664Y999D01*
X1398Y999D02*
X1405Y999D01*
X657Y998D02*
X664Y998D01*
X1398Y998D02*
X1405Y998D01*
X657Y997D02*
X664Y997D01*
X1398Y997D02*
X1405Y997D01*
X657Y996D02*
X664Y996D01*
X1398Y996D02*
X1405Y996D01*
X657Y995D02*
X664Y995D01*
X1398Y995D02*
X1405Y995D01*
X657Y994D02*
X664Y994D01*
X1398Y994D02*
X1405Y994D01*
X657Y993D02*
X664Y993D01*
X1398Y993D02*
X1405Y993D01*
X657Y992D02*
X664Y992D01*
X1398Y992D02*
X1405Y992D01*
X657Y991D02*
X664Y991D01*
X1398Y991D02*
X1405Y991D01*
X657Y990D02*
X664Y990D01*
X1398Y990D02*
X1405Y990D01*
X657Y989D02*
X664Y989D01*
X1398Y989D02*
X1405Y989D01*
X657Y988D02*
X664Y988D01*
X1398Y988D02*
X1405Y988D01*
X657Y987D02*
X664Y987D01*
X1398Y987D02*
X1405Y987D01*
X657Y986D02*
X664Y986D01*
X1398Y986D02*
X1405Y986D01*
X657Y985D02*
X664Y985D01*
X1398Y985D02*
X1405Y985D01*
X657Y984D02*
X664Y984D01*
X1398Y984D02*
X1405Y984D01*
X657Y983D02*
X664Y983D01*
X1398Y983D02*
X1405Y983D01*
X657Y982D02*
X664Y982D01*
X1398Y982D02*
X1405Y982D01*
X657Y981D02*
X664Y981D01*
X1398Y981D02*
X1405Y981D01*
X657Y980D02*
X664Y980D01*
X1398Y980D02*
X1405Y980D01*
X657Y979D02*
X664Y979D01*
X1398Y979D02*
X1405Y979D01*
X657Y978D02*
X664Y978D01*
X1398Y978D02*
X1405Y978D01*
X657Y977D02*
X664Y977D01*
X1398Y977D02*
X1405Y977D01*
X657Y976D02*
X664Y976D01*
X1398Y976D02*
X1405Y976D01*
X657Y975D02*
X664Y975D01*
X1398Y975D02*
X1405Y975D01*
X657Y974D02*
X664Y974D01*
X1398Y974D02*
X1405Y974D01*
X657Y973D02*
X664Y973D01*
X1398Y973D02*
X1405Y973D01*
X657Y972D02*
X664Y972D01*
X1398Y972D02*
X1405Y972D01*
X657Y971D02*
X664Y971D01*
X1398Y971D02*
X1405Y971D01*
X657Y970D02*
X664Y970D01*
X1398Y970D02*
X1405Y970D01*
X657Y969D02*
X664Y969D01*
X1398Y969D02*
X1405Y969D01*
X657Y968D02*
X664Y968D01*
X1398Y968D02*
X1405Y968D01*
X657Y967D02*
X664Y967D01*
X1398Y967D02*
X1405Y967D01*
X657Y966D02*
X664Y966D01*
X1398Y966D02*
X1405Y966D01*
X657Y965D02*
X664Y965D01*
X1398Y965D02*
X1405Y965D01*
X657Y964D02*
X664Y964D01*
X1398Y964D02*
X1405Y964D01*
X657Y963D02*
X664Y963D01*
X1398Y963D02*
X1405Y963D01*
X657Y962D02*
X664Y962D01*
X1398Y962D02*
X1405Y962D01*
X657Y961D02*
X664Y961D01*
X1398Y961D02*
X1405Y961D01*
X657Y960D02*
X664Y960D01*
X1398Y960D02*
X1405Y960D01*
X657Y959D02*
X664Y959D01*
X1398Y959D02*
X1405Y959D01*
X657Y958D02*
X664Y958D01*
X1398Y958D02*
X1405Y958D01*
X657Y957D02*
X664Y957D01*
X1398Y957D02*
X1405Y957D01*
X657Y956D02*
X664Y956D01*
X1398Y956D02*
X1405Y956D01*
X657Y955D02*
X664Y955D01*
X1398Y955D02*
X1405Y955D01*
X657Y954D02*
X664Y954D01*
X1398Y954D02*
X1405Y954D01*
X657Y953D02*
X664Y953D01*
X1398Y953D02*
X1405Y953D01*
X657Y952D02*
X664Y952D01*
X1398Y952D02*
X1405Y952D01*
X657Y951D02*
X664Y951D01*
X1398Y951D02*
X1405Y951D01*
X657Y950D02*
X664Y950D01*
X1398Y950D02*
X1405Y950D01*
X657Y949D02*
X664Y949D01*
X1398Y949D02*
X1405Y949D01*
X657Y948D02*
X664Y948D01*
X1398Y948D02*
X1405Y948D01*
X657Y947D02*
X664Y947D01*
X1398Y947D02*
X1405Y947D01*
X657Y946D02*
X664Y946D01*
X1398Y946D02*
X1405Y946D01*
X657Y945D02*
X664Y945D01*
X1398Y945D02*
X1405Y945D01*
X657Y944D02*
X664Y944D01*
X1398Y944D02*
X1405Y944D01*
X657Y943D02*
X664Y943D01*
X1398Y943D02*
X1405Y943D01*
X657Y942D02*
X664Y942D01*
X1398Y942D02*
X1405Y942D01*
X657Y941D02*
X664Y941D01*
X1398Y941D02*
X1405Y941D01*
X657Y940D02*
X664Y940D01*
X1398Y940D02*
X1405Y940D01*
X657Y939D02*
X664Y939D01*
X1398Y939D02*
X1405Y939D01*
X657Y938D02*
X664Y938D01*
X1398Y938D02*
X1405Y938D01*
X657Y937D02*
X664Y937D01*
X1398Y937D02*
X1405Y937D01*
X657Y936D02*
X664Y936D01*
X1398Y936D02*
X1405Y936D01*
X657Y935D02*
X664Y935D01*
X1398Y935D02*
X1405Y935D01*
X657Y934D02*
X664Y934D01*
X1398Y934D02*
X1405Y934D01*
X657Y933D02*
X664Y933D01*
X1398Y933D02*
X1405Y933D01*
X657Y932D02*
X664Y932D01*
X1398Y932D02*
X1405Y932D01*
X657Y931D02*
X664Y931D01*
X1398Y931D02*
X1405Y931D01*
X657Y930D02*
X664Y930D01*
X1398Y930D02*
X1405Y930D01*
X657Y929D02*
X664Y929D01*
X1398Y929D02*
X1405Y929D01*
X657Y928D02*
X664Y928D01*
X1398Y928D02*
X1405Y928D01*
X657Y927D02*
X664Y927D01*
X1398Y927D02*
X1405Y927D01*
X657Y926D02*
X664Y926D01*
X1398Y926D02*
X1405Y926D01*
X657Y925D02*
X664Y925D01*
X1398Y925D02*
X1405Y925D01*
X657Y924D02*
X664Y924D01*
X1398Y924D02*
X1405Y924D01*
X657Y923D02*
X664Y923D01*
X1398Y923D02*
X1405Y923D01*
X657Y922D02*
X664Y922D01*
X1398Y922D02*
X1405Y922D01*
X657Y921D02*
X664Y921D01*
X1398Y921D02*
X1405Y921D01*
X657Y920D02*
X664Y920D01*
X1398Y920D02*
X1405Y920D01*
X657Y919D02*
X664Y919D01*
X1398Y919D02*
X1405Y919D01*
X657Y918D02*
X664Y918D01*
X1398Y918D02*
X1405Y918D01*
X657Y917D02*
X664Y917D01*
X1398Y917D02*
X1405Y917D01*
X657Y916D02*
X664Y916D01*
X1398Y916D02*
X1405Y916D01*
X657Y915D02*
X664Y915D01*
X1398Y915D02*
X1405Y915D01*
X657Y914D02*
X664Y914D01*
X1398Y914D02*
X1405Y914D01*
X657Y913D02*
X664Y913D01*
X1398Y913D02*
X1405Y913D01*
X657Y912D02*
X664Y912D01*
X1398Y912D02*
X1405Y912D01*
X657Y911D02*
X664Y911D01*
X1398Y911D02*
X1405Y911D01*
X657Y910D02*
X664Y910D01*
X1398Y910D02*
X1405Y910D01*
X657Y909D02*
X664Y909D01*
X1398Y909D02*
X1405Y909D01*
X657Y908D02*
X664Y908D01*
X1398Y908D02*
X1405Y908D01*
X657Y907D02*
X664Y907D01*
X1398Y907D02*
X1405Y907D01*
X657Y906D02*
X664Y906D01*
X1398Y906D02*
X1405Y906D01*
X657Y905D02*
X664Y905D01*
X1398Y905D02*
X1405Y905D01*
X657Y904D02*
X664Y904D01*
X1398Y904D02*
X1405Y904D01*
X657Y903D02*
X664Y903D01*
X1398Y903D02*
X1405Y903D01*
X657Y902D02*
X664Y902D01*
X1398Y902D02*
X1405Y902D01*
X657Y901D02*
X664Y901D01*
X1398Y901D02*
X1405Y901D01*
X657Y900D02*
X664Y900D01*
X1398Y900D02*
X1405Y900D01*
X657Y899D02*
X664Y899D01*
X1398Y899D02*
X1405Y899D01*
X657Y898D02*
X664Y898D01*
X1398Y898D02*
X1405Y898D01*
X657Y897D02*
X664Y897D01*
X1398Y897D02*
X1405Y897D01*
X657Y896D02*
X664Y896D01*
X1398Y896D02*
X1405Y896D01*
X657Y895D02*
X664Y895D01*
X1398Y895D02*
X1405Y895D01*
X657Y894D02*
X664Y894D01*
X1398Y894D02*
X1405Y894D01*
X657Y893D02*
X664Y893D01*
X1398Y893D02*
X1405Y893D01*
X657Y892D02*
X664Y892D01*
X1398Y892D02*
X1405Y892D01*
X657Y891D02*
X664Y891D01*
X1398Y891D02*
X1405Y891D01*
X657Y890D02*
X664Y890D01*
X1398Y890D02*
X1405Y890D01*
X657Y889D02*
X664Y889D01*
X1398Y889D02*
X1405Y889D01*
X657Y888D02*
X664Y888D01*
X1398Y888D02*
X1405Y888D01*
X657Y887D02*
X664Y887D01*
X1398Y887D02*
X1405Y887D01*
X657Y886D02*
X664Y886D01*
X1398Y886D02*
X1405Y886D01*
X657Y885D02*
X664Y885D01*
X1398Y885D02*
X1405Y885D01*
X657Y884D02*
X664Y884D01*
X1398Y884D02*
X1405Y884D01*
X657Y883D02*
X664Y883D01*
X1398Y883D02*
X1405Y883D01*
X657Y882D02*
X664Y882D01*
X1398Y882D02*
X1405Y882D01*
X657Y881D02*
X664Y881D01*
X1398Y881D02*
X1405Y881D01*
X657Y880D02*
X664Y880D01*
X1398Y880D02*
X1405Y880D01*
X657Y879D02*
X664Y879D01*
X1398Y879D02*
X1405Y879D01*
X657Y878D02*
X664Y878D01*
X1398Y878D02*
X1405Y878D01*
X657Y877D02*
X664Y877D01*
X1398Y877D02*
X1405Y877D01*
X657Y876D02*
X664Y876D01*
X1398Y876D02*
X1405Y876D01*
X657Y875D02*
X664Y875D01*
X1398Y875D02*
X1405Y875D01*
X657Y874D02*
X664Y874D01*
X1398Y874D02*
X1405Y874D01*
X657Y873D02*
X664Y873D01*
X1398Y873D02*
X1405Y873D01*
X657Y872D02*
X664Y872D01*
X1398Y872D02*
X1405Y872D01*
X657Y871D02*
X664Y871D01*
X1398Y871D02*
X1405Y871D01*
X657Y870D02*
X664Y870D01*
X1398Y870D02*
X1405Y870D01*
X657Y869D02*
X664Y869D01*
X1398Y869D02*
X1405Y869D01*
X657Y868D02*
X664Y868D01*
X1398Y868D02*
X1405Y868D01*
X657Y867D02*
X664Y867D01*
X1398Y867D02*
X1405Y867D01*
X657Y866D02*
X664Y866D01*
X1398Y866D02*
X1405Y866D01*
X657Y865D02*
X664Y865D01*
X1398Y865D02*
X1405Y865D01*
X657Y864D02*
X664Y864D01*
X1398Y864D02*
X1405Y864D01*
X657Y863D02*
X664Y863D01*
X1398Y863D02*
X1405Y863D01*
X657Y862D02*
X664Y862D01*
X1398Y862D02*
X1405Y862D01*
X657Y861D02*
X664Y861D01*
X1398Y861D02*
X1405Y861D01*
X657Y860D02*
X664Y860D01*
X1398Y860D02*
X1405Y860D01*
X657Y859D02*
X664Y859D01*
X1398Y859D02*
X1405Y859D01*
X657Y858D02*
X664Y858D01*
X1398Y858D02*
X1405Y858D01*
X657Y857D02*
X664Y857D01*
X1398Y857D02*
X1405Y857D01*
X657Y856D02*
X664Y856D01*
X1398Y856D02*
X1405Y856D01*
X657Y855D02*
X664Y855D01*
X1398Y855D02*
X1405Y855D01*
X657Y854D02*
X664Y854D01*
X1398Y854D02*
X1405Y854D01*
X657Y853D02*
X664Y853D01*
X1398Y853D02*
X1405Y853D01*
X657Y852D02*
X664Y852D01*
X1398Y852D02*
X1405Y852D01*
X657Y851D02*
X664Y851D01*
X1398Y851D02*
X1405Y851D01*
X657Y850D02*
X664Y850D01*
X1398Y850D02*
X1405Y850D01*
X657Y849D02*
X664Y849D01*
X1398Y849D02*
X1405Y849D01*
X657Y848D02*
X664Y848D01*
X1398Y848D02*
X1405Y848D01*
X657Y847D02*
X664Y847D01*
X1398Y847D02*
X1405Y847D01*
X657Y846D02*
X664Y846D01*
X1398Y846D02*
X1405Y846D01*
X657Y845D02*
X664Y845D01*
X1398Y845D02*
X1405Y845D01*
X657Y844D02*
X664Y844D01*
X1398Y844D02*
X1405Y844D01*
X657Y843D02*
X664Y843D01*
X1398Y843D02*
X1405Y843D01*
X657Y842D02*
X664Y842D01*
X1398Y842D02*
X1405Y842D01*
X657Y841D02*
X664Y841D01*
X1398Y841D02*
X1405Y841D01*
X657Y840D02*
X664Y840D01*
X1398Y840D02*
X1405Y840D01*
X657Y839D02*
X664Y839D01*
X1398Y839D02*
X1405Y839D01*
X657Y838D02*
X664Y838D01*
X1398Y838D02*
X1405Y838D01*
X657Y837D02*
X664Y837D01*
X1398Y837D02*
X1405Y837D01*
X657Y836D02*
X664Y836D01*
X1398Y836D02*
X1405Y836D01*
X657Y835D02*
X664Y835D01*
X1398Y835D02*
X1405Y835D01*
X657Y834D02*
X664Y834D01*
X1398Y834D02*
X1405Y834D01*
X657Y833D02*
X664Y833D01*
X1398Y833D02*
X1405Y833D01*
X657Y832D02*
X664Y832D01*
X1398Y832D02*
X1405Y832D01*
X657Y831D02*
X664Y831D01*
X1398Y831D02*
X1405Y831D01*
X657Y830D02*
X664Y830D01*
X1398Y830D02*
X1405Y830D01*
X657Y829D02*
X664Y829D01*
X1398Y829D02*
X1405Y829D01*
X657Y828D02*
X664Y828D01*
X1398Y828D02*
X1405Y828D01*
X657Y827D02*
X664Y827D01*
X1398Y827D02*
X1405Y827D01*
X657Y826D02*
X664Y826D01*
X1398Y826D02*
X1405Y826D01*
X657Y825D02*
X664Y825D01*
X1398Y825D02*
X1405Y825D01*
X657Y824D02*
X664Y824D01*
X1398Y824D02*
X1405Y824D01*
X657Y823D02*
X664Y823D01*
X1398Y823D02*
X1405Y823D01*
X657Y822D02*
X664Y822D01*
X1398Y822D02*
X1405Y822D01*
X657Y821D02*
X664Y821D01*
X1398Y821D02*
X1405Y821D01*
X657Y820D02*
X664Y820D01*
X1398Y820D02*
X1405Y820D01*
X657Y819D02*
X664Y819D01*
X1398Y819D02*
X1405Y819D01*
X657Y818D02*
X664Y818D01*
X1398Y818D02*
X1405Y818D01*
X657Y817D02*
X664Y817D01*
X1398Y817D02*
X1405Y817D01*
X657Y816D02*
X664Y816D01*
X1398Y816D02*
X1405Y816D01*
X657Y815D02*
X664Y815D01*
X1398Y815D02*
X1405Y815D01*
X657Y814D02*
X664Y814D01*
X1398Y814D02*
X1405Y814D01*
X657Y813D02*
X664Y813D01*
X1398Y813D02*
X1405Y813D01*
X657Y812D02*
X664Y812D01*
X1398Y812D02*
X1405Y812D01*
X657Y811D02*
X664Y811D01*
X1398Y811D02*
X1405Y811D01*
X657Y810D02*
X664Y810D01*
X1398Y810D02*
X1405Y810D01*
X657Y809D02*
X664Y809D01*
X1398Y809D02*
X1405Y809D01*
X657Y808D02*
X664Y808D01*
X1398Y808D02*
X1405Y808D01*
X657Y807D02*
X664Y807D01*
X1398Y807D02*
X1405Y807D01*
X657Y806D02*
X664Y806D01*
X1398Y806D02*
X1405Y806D01*
X657Y805D02*
X664Y805D01*
X1398Y805D02*
X1405Y805D01*
X657Y804D02*
X664Y804D01*
X1398Y804D02*
X1405Y804D01*
X657Y803D02*
X664Y803D01*
X1398Y803D02*
X1405Y803D01*
X657Y802D02*
X664Y802D01*
X1398Y802D02*
X1405Y802D01*
X657Y801D02*
X664Y801D01*
X1398Y801D02*
X1405Y801D01*
X657Y800D02*
X664Y800D01*
X1398Y800D02*
X1405Y800D01*
X657Y799D02*
X664Y799D01*
X1398Y799D02*
X1405Y799D01*
X657Y798D02*
X664Y798D01*
X1398Y798D02*
X1405Y798D01*
X657Y797D02*
X664Y797D01*
X1398Y797D02*
X1405Y797D01*
X657Y796D02*
X664Y796D01*
X1398Y796D02*
X1405Y796D01*
X657Y795D02*
X664Y795D01*
X1398Y795D02*
X1405Y795D01*
X657Y794D02*
X664Y794D01*
X1398Y794D02*
X1405Y794D01*
X657Y793D02*
X664Y793D01*
X1398Y793D02*
X1405Y793D01*
X657Y792D02*
X664Y792D01*
X1398Y792D02*
X1405Y792D01*
X657Y791D02*
X664Y791D01*
X1398Y791D02*
X1405Y791D01*
X657Y790D02*
X664Y790D01*
X1398Y790D02*
X1405Y790D01*
X657Y789D02*
X664Y789D01*
X1398Y789D02*
X1405Y789D01*
X657Y788D02*
X664Y788D01*
X1398Y788D02*
X1405Y788D01*
X657Y787D02*
X664Y787D01*
X1398Y787D02*
X1405Y787D01*
X657Y786D02*
X664Y786D01*
X1398Y786D02*
X1405Y786D01*
X657Y785D02*
X664Y785D01*
X1398Y785D02*
X1405Y785D01*
X657Y784D02*
X664Y784D01*
X1398Y784D02*
X1405Y784D01*
X657Y783D02*
X664Y783D01*
X1398Y783D02*
X1405Y783D01*
X657Y782D02*
X664Y782D01*
X1398Y782D02*
X1405Y782D01*
X657Y781D02*
X664Y781D01*
X1398Y781D02*
X1405Y781D01*
X657Y780D02*
X664Y780D01*
X1398Y780D02*
X1405Y780D01*
X657Y779D02*
X664Y779D01*
X1398Y779D02*
X1405Y779D01*
X657Y778D02*
X664Y778D01*
X1398Y778D02*
X1405Y778D01*
X657Y777D02*
X664Y777D01*
X1398Y777D02*
X1405Y777D01*
X657Y776D02*
X664Y776D01*
X1398Y776D02*
X1405Y776D01*
X657Y775D02*
X664Y775D01*
X1398Y775D02*
X1405Y775D01*
X657Y774D02*
X664Y774D01*
X1398Y774D02*
X1405Y774D01*
X657Y773D02*
X664Y773D01*
X1398Y773D02*
X1405Y773D01*
X657Y772D02*
X664Y772D01*
X1398Y772D02*
X1405Y772D01*
X657Y771D02*
X664Y771D01*
X1398Y771D02*
X1405Y771D01*
X657Y770D02*
X664Y770D01*
X1398Y770D02*
X1405Y770D01*
X657Y769D02*
X664Y769D01*
X1398Y769D02*
X1405Y769D01*
X657Y768D02*
X664Y768D01*
X1398Y768D02*
X1405Y768D01*
X657Y767D02*
X664Y767D01*
X1398Y767D02*
X1405Y767D01*
X657Y766D02*
X664Y766D01*
X1398Y766D02*
X1405Y766D01*
X657Y765D02*
X664Y765D01*
X1398Y765D02*
X1405Y765D01*
X657Y764D02*
X664Y764D01*
X1398Y764D02*
X1405Y764D01*
X657Y763D02*
X664Y763D01*
X1398Y763D02*
X1405Y763D01*
X657Y762D02*
X664Y762D01*
X1398Y762D02*
X1405Y762D01*
X657Y761D02*
X664Y761D01*
X1398Y761D02*
X1405Y761D01*
X657Y760D02*
X664Y760D01*
X1398Y760D02*
X1405Y760D01*
X657Y759D02*
X664Y759D01*
X1398Y759D02*
X1405Y759D01*
X657Y758D02*
X664Y758D01*
X1398Y758D02*
X1405Y758D01*
X657Y757D02*
X664Y757D01*
X1398Y757D02*
X1405Y757D01*
X657Y756D02*
X664Y756D01*
X1398Y756D02*
X1405Y756D01*
X657Y755D02*
X664Y755D01*
X1398Y755D02*
X1405Y755D01*
X657Y754D02*
X664Y754D01*
X1398Y754D02*
X1405Y754D01*
X657Y753D02*
X664Y753D01*
X1398Y753D02*
X1405Y753D01*
X657Y752D02*
X664Y752D01*
X1398Y752D02*
X1405Y752D01*
X657Y751D02*
X664Y751D01*
X1398Y751D02*
X1405Y751D01*
X657Y750D02*
X664Y750D01*
X1398Y750D02*
X1405Y750D01*
X657Y749D02*
X664Y749D01*
X1398Y749D02*
X1405Y749D01*
X657Y748D02*
X664Y748D01*
X1398Y748D02*
X1405Y748D01*
X657Y747D02*
X664Y747D01*
X1398Y747D02*
X1405Y747D01*
X657Y746D02*
X664Y746D01*
X1398Y746D02*
X1405Y746D01*
X657Y745D02*
X664Y745D01*
X1398Y745D02*
X1405Y745D01*
X657Y744D02*
X664Y744D01*
X1398Y744D02*
X1405Y744D01*
X657Y743D02*
X664Y743D01*
X1398Y743D02*
X1405Y743D01*
X657Y742D02*
X664Y742D01*
X1398Y742D02*
X1405Y742D01*
X657Y741D02*
X664Y741D01*
X1398Y741D02*
X1405Y741D01*
X657Y740D02*
X664Y740D01*
X1398Y740D02*
X1405Y740D01*
X657Y739D02*
X664Y739D01*
X1398Y739D02*
X1405Y739D01*
X657Y738D02*
X664Y738D01*
X1398Y738D02*
X1405Y738D01*
X657Y737D02*
X664Y737D01*
X1398Y737D02*
X1405Y737D01*
X657Y736D02*
X664Y736D01*
X1398Y736D02*
X1405Y736D01*
X657Y735D02*
X664Y735D01*
X1398Y735D02*
X1405Y735D01*
X657Y734D02*
X664Y734D01*
X1398Y734D02*
X1405Y734D01*
X657Y733D02*
X664Y733D01*
X1398Y733D02*
X1405Y733D01*
X657Y732D02*
X664Y732D01*
X1398Y732D02*
X1405Y732D01*
X657Y731D02*
X664Y731D01*
X1398Y731D02*
X1405Y731D01*
X657Y730D02*
X664Y730D01*
X1398Y730D02*
X1405Y730D01*
X657Y729D02*
X664Y729D01*
X1398Y729D02*
X1405Y729D01*
X657Y728D02*
X664Y728D01*
X1398Y728D02*
X1405Y728D01*
X657Y727D02*
X664Y727D01*
X1398Y727D02*
X1405Y727D01*
X657Y726D02*
X664Y726D01*
X1398Y726D02*
X1405Y726D01*
X657Y725D02*
X664Y725D01*
X1398Y725D02*
X1405Y725D01*
X657Y724D02*
X664Y724D01*
X1398Y724D02*
X1405Y724D01*
X657Y723D02*
X664Y723D01*
X1398Y723D02*
X1405Y723D01*
X657Y722D02*
X664Y722D01*
X1398Y722D02*
X1405Y722D01*
X657Y721D02*
X664Y721D01*
X1398Y721D02*
X1405Y721D01*
X657Y720D02*
X664Y720D01*
X1398Y720D02*
X1405Y720D01*
X657Y719D02*
X664Y719D01*
X1398Y719D02*
X1405Y719D01*
X657Y718D02*
X664Y718D01*
X1398Y718D02*
X1405Y718D01*
X657Y717D02*
X664Y717D01*
X1398Y717D02*
X1405Y717D01*
X657Y716D02*
X664Y716D01*
X1398Y716D02*
X1405Y716D01*
X657Y715D02*
X664Y715D01*
X1398Y715D02*
X1405Y715D01*
X657Y714D02*
X664Y714D01*
X1398Y714D02*
X1405Y714D01*
X657Y713D02*
X664Y713D01*
X1398Y713D02*
X1405Y713D01*
X657Y712D02*
X664Y712D01*
X1398Y712D02*
X1405Y712D01*
X657Y711D02*
X664Y711D01*
X1398Y711D02*
X1405Y711D01*
X657Y710D02*
X664Y710D01*
X1398Y710D02*
X1405Y710D01*
X657Y709D02*
X664Y709D01*
X1398Y709D02*
X1405Y709D01*
X657Y708D02*
X664Y708D01*
X1398Y708D02*
X1405Y708D01*
X657Y707D02*
X664Y707D01*
X1398Y707D02*
X1405Y707D01*
X657Y706D02*
X664Y706D01*
X1398Y706D02*
X1405Y706D01*
X657Y705D02*
X664Y705D01*
X1398Y705D02*
X1405Y705D01*
X657Y704D02*
X664Y704D01*
X1398Y704D02*
X1405Y704D01*
X657Y703D02*
X664Y703D01*
X1398Y703D02*
X1405Y703D01*
X657Y702D02*
X664Y702D01*
X1398Y702D02*
X1405Y702D01*
X657Y701D02*
X664Y701D01*
X1398Y701D02*
X1405Y701D01*
X657Y700D02*
X664Y700D01*
X1398Y700D02*
X1405Y700D01*
X657Y699D02*
X664Y699D01*
X1398Y699D02*
X1405Y699D01*
X657Y698D02*
X664Y698D01*
X1398Y698D02*
X1405Y698D01*
X657Y697D02*
X664Y697D01*
X1398Y697D02*
X1405Y697D01*
X657Y696D02*
X664Y696D01*
X1398Y696D02*
X1405Y696D01*
X657Y695D02*
X664Y695D01*
X1398Y695D02*
X1405Y695D01*
X657Y694D02*
X664Y694D01*
X1398Y694D02*
X1405Y694D01*
X657Y693D02*
X664Y693D01*
X1398Y693D02*
X1405Y693D01*
X657Y692D02*
X664Y692D01*
X1398Y692D02*
X1405Y692D01*
X657Y691D02*
X664Y691D01*
X1398Y691D02*
X1405Y691D01*
X657Y690D02*
X664Y690D01*
X1398Y690D02*
X1405Y690D01*
X657Y689D02*
X664Y689D01*
X1398Y689D02*
X1405Y689D01*
X657Y688D02*
X664Y688D01*
X1398Y688D02*
X1405Y688D01*
X657Y687D02*
X664Y687D01*
X1398Y687D02*
X1405Y687D01*
X657Y686D02*
X664Y686D01*
X1398Y686D02*
X1405Y686D01*
X657Y685D02*
X664Y685D01*
X1398Y685D02*
X1405Y685D01*
X657Y684D02*
X664Y684D01*
X1398Y684D02*
X1405Y684D01*
X657Y683D02*
X664Y683D01*
X1398Y683D02*
X1405Y683D01*
X657Y682D02*
X664Y682D01*
X1398Y682D02*
X1405Y682D01*
X657Y681D02*
X664Y681D01*
X1398Y681D02*
X1405Y681D01*
X657Y680D02*
X664Y680D01*
X1398Y680D02*
X1405Y680D01*
X657Y679D02*
X664Y679D01*
X1398Y679D02*
X1405Y679D01*
X657Y678D02*
X664Y678D01*
X1398Y678D02*
X1405Y678D01*
X657Y677D02*
X664Y677D01*
X1398Y677D02*
X1405Y677D01*
X657Y676D02*
X664Y676D01*
X1398Y676D02*
X1405Y676D01*
X657Y675D02*
X664Y675D01*
X1398Y675D02*
X1405Y675D01*
X657Y674D02*
X664Y674D01*
X1398Y674D02*
X1405Y674D01*
X657Y673D02*
X664Y673D01*
X1398Y673D02*
X1405Y673D01*
X657Y672D02*
X664Y672D01*
X1398Y672D02*
X1405Y672D01*
X657Y671D02*
X664Y671D01*
X1398Y671D02*
X1405Y671D01*
X657Y670D02*
X664Y670D01*
X1398Y670D02*
X1405Y670D01*
X657Y669D02*
X664Y669D01*
X1398Y669D02*
X1405Y669D01*
X657Y668D02*
X664Y668D01*
X1398Y668D02*
X1405Y668D01*
X657Y667D02*
X664Y667D01*
X1398Y667D02*
X1405Y667D01*
X657Y666D02*
X664Y666D01*
X1398Y666D02*
X1405Y666D01*
X657Y665D02*
X664Y665D01*
X1398Y665D02*
X1405Y665D01*
X657Y664D02*
X664Y664D01*
X1398Y664D02*
X1405Y664D01*
X657Y663D02*
X664Y663D01*
X1398Y663D02*
X1405Y663D01*
X657Y662D02*
X664Y662D01*
X1398Y662D02*
X1405Y662D01*
X657Y661D02*
X664Y661D01*
X1398Y661D02*
X1405Y661D01*
X657Y660D02*
X664Y660D01*
X1398Y660D02*
X1405Y660D01*
X657Y659D02*
X664Y659D01*
X1398Y659D02*
X1405Y659D01*
X657Y658D02*
X664Y658D01*
X1398Y658D02*
X1405Y658D01*
X657Y657D02*
X664Y657D01*
X1398Y657D02*
X1405Y657D01*
X657Y656D02*
X664Y656D01*
X1398Y656D02*
X1405Y656D01*
X657Y655D02*
X664Y655D01*
X1398Y655D02*
X1405Y655D01*
X657Y654D02*
X664Y654D01*
X1398Y654D02*
X1405Y654D01*
X657Y653D02*
X664Y653D01*
X1398Y653D02*
X1405Y653D01*
X657Y652D02*
X664Y652D01*
X1398Y652D02*
X1405Y652D01*
X657Y651D02*
X664Y651D01*
X1398Y651D02*
X1405Y651D01*
X657Y650D02*
X664Y650D01*
X1398Y650D02*
X1405Y650D01*
X657Y649D02*
X664Y649D01*
X1398Y649D02*
X1405Y649D01*
X657Y648D02*
X664Y648D01*
X1398Y648D02*
X1405Y648D01*
X657Y647D02*
X664Y647D01*
X1398Y647D02*
X1405Y647D01*
X657Y646D02*
X664Y646D01*
X1398Y646D02*
X1405Y646D01*
X657Y645D02*
X664Y645D01*
X1398Y645D02*
X1405Y645D01*
X657Y644D02*
X664Y644D01*
X1398Y644D02*
X1405Y644D01*
X657Y643D02*
X664Y643D01*
X1398Y643D02*
X1405Y643D01*
X657Y642D02*
X664Y642D01*
X1398Y642D02*
X1405Y642D01*
X657Y641D02*
X664Y641D01*
X1398Y641D02*
X1405Y641D01*
X657Y640D02*
X664Y640D01*
X1398Y640D02*
X1405Y640D01*
X657Y639D02*
X664Y639D01*
X1398Y639D02*
X1405Y639D01*
X657Y638D02*
X664Y638D01*
X1398Y638D02*
X1405Y638D01*
X657Y637D02*
X664Y637D01*
X1398Y637D02*
X1405Y637D01*
X657Y636D02*
X664Y636D01*
X1398Y636D02*
X1405Y636D01*
X657Y635D02*
X664Y635D01*
X1398Y635D02*
X1405Y635D01*
X657Y634D02*
X664Y634D01*
X1398Y634D02*
X1405Y634D01*
X657Y633D02*
X664Y633D01*
X1398Y633D02*
X1405Y633D01*
X657Y632D02*
X664Y632D01*
X1398Y632D02*
X1405Y632D01*
X657Y631D02*
X664Y631D01*
X1398Y631D02*
X1405Y631D01*
X657Y630D02*
X664Y630D01*
X1398Y630D02*
X1405Y630D01*
X657Y629D02*
X664Y629D01*
X1398Y629D02*
X1405Y629D01*
X657Y628D02*
X664Y628D01*
X1398Y628D02*
X1405Y628D01*
X657Y627D02*
X664Y627D01*
X1398Y627D02*
X1405Y627D01*
X657Y626D02*
X664Y626D01*
X1398Y626D02*
X1405Y626D01*
X657Y625D02*
X664Y625D01*
X1398Y625D02*
X1405Y625D01*
X657Y624D02*
X664Y624D01*
X1398Y624D02*
X1405Y624D01*
X657Y623D02*
X664Y623D01*
X1398Y623D02*
X1405Y623D01*
X657Y622D02*
X664Y622D01*
X1398Y622D02*
X1405Y622D01*
X657Y621D02*
X664Y621D01*
X1398Y621D02*
X1405Y621D01*
X657Y620D02*
X664Y620D01*
X1398Y620D02*
X1405Y620D01*
X657Y619D02*
X664Y619D01*
X1398Y619D02*
X1405Y619D01*
X657Y618D02*
X664Y618D01*
X1398Y618D02*
X1405Y618D01*
X657Y617D02*
X664Y617D01*
X1398Y617D02*
X1405Y617D01*
X657Y616D02*
X664Y616D01*
X1398Y616D02*
X1405Y616D01*
X657Y615D02*
X664Y615D01*
X1398Y615D02*
X1405Y615D01*
X657Y614D02*
X664Y614D01*
X1398Y614D02*
X1405Y614D01*
X657Y613D02*
X664Y613D01*
X1398Y613D02*
X1405Y613D01*
X657Y612D02*
X664Y612D01*
X1398Y612D02*
X1405Y612D01*
X657Y611D02*
X664Y611D01*
X1398Y611D02*
X1405Y611D01*
X657Y610D02*
X664Y610D01*
X1398Y610D02*
X1405Y610D01*
X657Y609D02*
X664Y609D01*
X1398Y609D02*
X1405Y609D01*
X657Y608D02*
X664Y608D01*
X1398Y608D02*
X1405Y608D01*
X657Y607D02*
X664Y607D01*
X1398Y607D02*
X1405Y607D01*
X657Y606D02*
X664Y606D01*
X1398Y606D02*
X1405Y606D01*
X657Y605D02*
X664Y605D01*
X1398Y605D02*
X1405Y605D01*
X657Y604D02*
X664Y604D01*
X1398Y604D02*
X1405Y604D01*
X657Y603D02*
X664Y603D01*
X1398Y603D02*
X1405Y603D01*
X657Y602D02*
X664Y602D01*
X1398Y602D02*
X1405Y602D01*
X657Y601D02*
X664Y601D01*
X1398Y601D02*
X1405Y601D01*
X657Y600D02*
X664Y600D01*
X1398Y600D02*
X1405Y600D01*
X657Y599D02*
X664Y599D01*
X1398Y599D02*
X1405Y599D01*
X657Y598D02*
X664Y598D01*
X1398Y598D02*
X1405Y598D01*
X657Y597D02*
X664Y597D01*
X1398Y597D02*
X1405Y597D01*
X657Y596D02*
X664Y596D01*
X1398Y596D02*
X1405Y596D01*
X657Y595D02*
X664Y595D01*
X1398Y595D02*
X1405Y595D01*
X657Y594D02*
X664Y594D01*
X1398Y594D02*
X1405Y594D01*
X657Y593D02*
X664Y593D01*
X1398Y593D02*
X1405Y593D01*
X657Y592D02*
X664Y592D01*
X1398Y592D02*
X1405Y592D01*
X657Y591D02*
X664Y591D01*
X1398Y591D02*
X1405Y591D01*
X657Y590D02*
X664Y590D01*
X1398Y590D02*
X1405Y590D01*
X657Y589D02*
X664Y589D01*
X1398Y589D02*
X1405Y589D01*
X657Y588D02*
X664Y588D01*
X1398Y588D02*
X1405Y588D01*
X657Y587D02*
X664Y587D01*
X1398Y587D02*
X1405Y587D01*
X657Y586D02*
X664Y586D01*
X1398Y586D02*
X1405Y586D01*
X657Y585D02*
X664Y585D01*
X1398Y585D02*
X1405Y585D01*
X657Y584D02*
X664Y584D01*
X1398Y584D02*
X1405Y584D01*
X657Y583D02*
X664Y583D01*
X1398Y583D02*
X1405Y583D01*
X657Y582D02*
X664Y582D01*
X1398Y582D02*
X1405Y582D01*
X657Y581D02*
X664Y581D01*
X1398Y581D02*
X1405Y581D01*
X657Y580D02*
X664Y580D01*
X1398Y580D02*
X1405Y580D01*
X657Y579D02*
X664Y579D01*
X1398Y579D02*
X1405Y579D01*
X657Y578D02*
X664Y578D01*
X1398Y578D02*
X1405Y578D01*
X657Y577D02*
X664Y577D01*
X1398Y577D02*
X1405Y577D01*
X657Y576D02*
X664Y576D01*
X1398Y576D02*
X1405Y576D01*
X657Y575D02*
X664Y575D01*
X1398Y575D02*
X1405Y575D01*
X657Y574D02*
X664Y574D01*
X1398Y574D02*
X1405Y574D01*
X657Y573D02*
X664Y573D01*
X1398Y573D02*
X1405Y573D01*
X657Y572D02*
X664Y572D01*
X1398Y572D02*
X1405Y572D01*
X657Y571D02*
X664Y571D01*
X1398Y571D02*
X1405Y571D01*
X657Y570D02*
X664Y570D01*
X1398Y570D02*
X1405Y570D01*
X657Y569D02*
X664Y569D01*
X1398Y569D02*
X1405Y569D01*
X657Y568D02*
X664Y568D01*
X1398Y568D02*
X1405Y568D01*
X657Y567D02*
X664Y567D01*
X1398Y567D02*
X1405Y567D01*
X657Y566D02*
X664Y566D01*
X1398Y566D02*
X1405Y566D01*
X657Y565D02*
X664Y565D01*
X1398Y565D02*
X1405Y565D01*
X657Y564D02*
X664Y564D01*
X1398Y564D02*
X1405Y564D01*
X657Y563D02*
X664Y563D01*
X1398Y563D02*
X1405Y563D01*
X657Y562D02*
X664Y562D01*
X1398Y562D02*
X1405Y562D01*
X657Y561D02*
X664Y561D01*
X1398Y561D02*
X1405Y561D01*
X657Y560D02*
X664Y560D01*
X1398Y560D02*
X1405Y560D01*
X657Y559D02*
X664Y559D01*
X1398Y559D02*
X1405Y559D01*
X657Y558D02*
X664Y558D01*
X1398Y558D02*
X1405Y558D01*
X657Y557D02*
X664Y557D01*
X1398Y557D02*
X1405Y557D01*
X657Y556D02*
X664Y556D01*
X1398Y556D02*
X1405Y556D01*
X657Y555D02*
X664Y555D01*
X1398Y555D02*
X1405Y555D01*
X657Y554D02*
X664Y554D01*
X1398Y554D02*
X1405Y554D01*
X657Y553D02*
X664Y553D01*
X1398Y553D02*
X1405Y553D01*
X657Y552D02*
X664Y552D01*
X1398Y552D02*
X1405Y552D01*
X657Y551D02*
X664Y551D01*
X1398Y551D02*
X1405Y551D01*
X657Y550D02*
X664Y550D01*
X1398Y550D02*
X1405Y550D01*
X657Y549D02*
X664Y549D01*
X1398Y549D02*
X1405Y549D01*
X657Y548D02*
X664Y548D01*
X1398Y548D02*
X1405Y548D01*
X657Y547D02*
X664Y547D01*
X1398Y547D02*
X1405Y547D01*
X657Y546D02*
X664Y546D01*
X1398Y546D02*
X1405Y546D01*
X657Y545D02*
X664Y545D01*
X1398Y545D02*
X1405Y545D01*
X657Y544D02*
X664Y544D01*
X1398Y544D02*
X1405Y544D01*
X657Y543D02*
X664Y543D01*
X1398Y543D02*
X1405Y543D01*
X657Y542D02*
X664Y542D01*
X1398Y542D02*
X1405Y542D01*
X657Y541D02*
X664Y541D01*
X1398Y541D02*
X1405Y541D01*
X657Y540D02*
X664Y540D01*
X1398Y540D02*
X1405Y540D01*
X657Y539D02*
X664Y539D01*
X1398Y539D02*
X1405Y539D01*
X657Y538D02*
X664Y538D01*
X1398Y538D02*
X1405Y538D01*
X657Y537D02*
X664Y537D01*
X1398Y537D02*
X1405Y537D01*
X657Y536D02*
X664Y536D01*
X1398Y536D02*
X1405Y536D01*
X657Y535D02*
X664Y535D01*
X1398Y535D02*
X1405Y535D01*
X657Y534D02*
X664Y534D01*
X1398Y534D02*
X1405Y534D01*
X657Y533D02*
X664Y533D01*
X1398Y533D02*
X1405Y533D01*
X657Y532D02*
X664Y532D01*
X1398Y532D02*
X1405Y532D01*
X657Y531D02*
X664Y531D01*
X1398Y531D02*
X1405Y531D01*
X657Y530D02*
X664Y530D01*
X1398Y530D02*
X1405Y530D01*
X657Y529D02*
X664Y529D01*
X1398Y529D02*
X1405Y529D01*
X657Y528D02*
X664Y528D01*
X1398Y528D02*
X1405Y528D01*
X657Y527D02*
X664Y527D01*
X1398Y527D02*
X1405Y527D01*
X657Y526D02*
X664Y526D01*
X1398Y526D02*
X1405Y526D01*
X657Y525D02*
X664Y525D01*
X1398Y525D02*
X1405Y525D01*
X657Y524D02*
X664Y524D01*
X1398Y524D02*
X1405Y524D01*
X657Y523D02*
X664Y523D01*
X1398Y523D02*
X1405Y523D01*
X657Y522D02*
X664Y522D01*
X1398Y522D02*
X1405Y522D01*
X657Y521D02*
X664Y521D01*
X1398Y521D02*
X1405Y521D01*
X657Y520D02*
X664Y520D01*
X1398Y520D02*
X1405Y520D01*
X657Y519D02*
X664Y519D01*
X1398Y519D02*
X1405Y519D01*
X657Y518D02*
X664Y518D01*
X1398Y518D02*
X1405Y518D01*
X657Y517D02*
X664Y517D01*
X1398Y517D02*
X1405Y517D01*
X657Y516D02*
X664Y516D01*
X1398Y516D02*
X1405Y516D01*
X657Y515D02*
X664Y515D01*
X1398Y515D02*
X1405Y515D01*
X657Y514D02*
X664Y514D01*
X1398Y514D02*
X1405Y514D01*
X657Y513D02*
X664Y513D01*
X1398Y513D02*
X1405Y513D01*
X657Y512D02*
X664Y512D01*
X1398Y512D02*
X1405Y512D01*
X657Y511D02*
X664Y511D01*
X1398Y511D02*
X1405Y511D01*
X657Y510D02*
X664Y510D01*
X1398Y510D02*
X1405Y510D01*
X657Y509D02*
X664Y509D01*
X1398Y509D02*
X1405Y509D01*
X657Y508D02*
X664Y508D01*
X1398Y508D02*
X1405Y508D01*
X657Y507D02*
X664Y507D01*
X1398Y507D02*
X1405Y507D01*
X657Y506D02*
X664Y506D01*
X1398Y506D02*
X1405Y506D01*
X657Y505D02*
X664Y505D01*
X1398Y505D02*
X1405Y505D01*
X657Y504D02*
X664Y504D01*
X1398Y504D02*
X1405Y504D01*
X657Y503D02*
X664Y503D01*
X1398Y503D02*
X1405Y503D01*
X657Y502D02*
X664Y502D01*
X1398Y502D02*
X1405Y502D01*
X657Y501D02*
X664Y501D01*
X1398Y501D02*
X1405Y501D01*
X657Y500D02*
X664Y500D01*
X1398Y500D02*
X1405Y500D01*
X657Y499D02*
X664Y499D01*
X1398Y499D02*
X1405Y499D01*
X657Y498D02*
X664Y498D01*
X1398Y498D02*
X1405Y498D01*
X657Y497D02*
X664Y497D01*
X1398Y497D02*
X1405Y497D01*
X657Y496D02*
X664Y496D01*
X1398Y496D02*
X1405Y496D01*
X657Y495D02*
X664Y495D01*
X1398Y495D02*
X1405Y495D01*
X657Y494D02*
X664Y494D01*
X1398Y494D02*
X1405Y494D01*
X657Y493D02*
X664Y493D01*
X1398Y493D02*
X1405Y493D01*
X657Y492D02*
X664Y492D01*
X1398Y492D02*
X1405Y492D01*
X657Y491D02*
X664Y491D01*
X1398Y491D02*
X1405Y491D01*
X657Y490D02*
X664Y490D01*
X1398Y490D02*
X1405Y490D01*
X657Y489D02*
X664Y489D01*
X1398Y489D02*
X1405Y489D01*
X657Y488D02*
X664Y488D01*
X1398Y488D02*
X1405Y488D01*
X657Y487D02*
X664Y487D01*
X1398Y487D02*
X1405Y487D01*
X657Y486D02*
X664Y486D01*
X1398Y486D02*
X1405Y486D01*
X657Y485D02*
X664Y485D01*
X1398Y485D02*
X1405Y485D01*
X657Y484D02*
X664Y484D01*
X1398Y484D02*
X1405Y484D01*
X657Y483D02*
X664Y483D01*
X1398Y483D02*
X1405Y483D01*
X657Y482D02*
X664Y482D01*
X1398Y482D02*
X1405Y482D01*
X657Y481D02*
X664Y481D01*
X1398Y481D02*
X1405Y481D01*
X657Y480D02*
X664Y480D01*
X1398Y480D02*
X1405Y480D01*
X657Y479D02*
X664Y479D01*
X1398Y479D02*
X1405Y479D01*
X657Y478D02*
X664Y478D01*
X1398Y478D02*
X1405Y478D01*
X657Y477D02*
X664Y477D01*
X1398Y477D02*
X1405Y477D01*
X657Y476D02*
X664Y476D01*
X1398Y476D02*
X1405Y476D01*
X657Y475D02*
X664Y475D01*
X1398Y475D02*
X1405Y475D01*
X657Y474D02*
X664Y474D01*
X1398Y474D02*
X1405Y474D01*
X657Y473D02*
X664Y473D01*
X1398Y473D02*
X1405Y473D01*
X657Y472D02*
X664Y472D01*
X1398Y472D02*
X1405Y472D01*
X657Y471D02*
X664Y471D01*
X1398Y471D02*
X1405Y471D01*
X657Y470D02*
X664Y470D01*
X1398Y470D02*
X1405Y470D01*
X657Y469D02*
X664Y469D01*
X1398Y469D02*
X1405Y469D01*
X657Y468D02*
X664Y468D01*
X1398Y468D02*
X1405Y468D01*
X657Y467D02*
X664Y467D01*
X1398Y467D02*
X1405Y467D01*
X657Y466D02*
X664Y466D01*
X1398Y466D02*
X1405Y466D01*
X657Y465D02*
X664Y465D01*
X1398Y465D02*
X1405Y465D01*
X657Y464D02*
X664Y464D01*
X1398Y464D02*
X1405Y464D01*
X657Y463D02*
X664Y463D01*
X1398Y463D02*
X1405Y463D01*
X657Y462D02*
X664Y462D01*
X1398Y462D02*
X1405Y462D01*
X657Y461D02*
X664Y461D01*
X1398Y461D02*
X1405Y461D01*
X657Y460D02*
X664Y460D01*
X1398Y460D02*
X1405Y460D01*
X657Y459D02*
X664Y459D01*
X1398Y459D02*
X1405Y459D01*
X657Y458D02*
X664Y458D01*
X1398Y458D02*
X1405Y458D01*
X657Y457D02*
X664Y457D01*
X1398Y457D02*
X1405Y457D01*
X657Y456D02*
X664Y456D01*
X1398Y456D02*
X1405Y456D01*
X657Y455D02*
X664Y455D01*
X1398Y455D02*
X1405Y455D01*
X657Y454D02*
X664Y454D01*
X1398Y454D02*
X1405Y454D01*
X657Y453D02*
X664Y453D01*
X1398Y453D02*
X1405Y453D01*
X657Y452D02*
X664Y452D01*
X1398Y452D02*
X1405Y452D01*
X657Y451D02*
X664Y451D01*
X1398Y451D02*
X1405Y451D01*
X657Y450D02*
X664Y450D01*
X1398Y450D02*
X1405Y450D01*
X657Y449D02*
X664Y449D01*
X1398Y449D02*
X1405Y449D01*
X657Y448D02*
X664Y448D01*
X1398Y448D02*
X1405Y448D01*
X657Y447D02*
X664Y447D01*
X1398Y447D02*
X1405Y447D01*
X657Y446D02*
X664Y446D01*
X1398Y446D02*
X1405Y446D01*
X657Y445D02*
X664Y445D01*
X1398Y445D02*
X1405Y445D01*
X657Y444D02*
X664Y444D01*
X1398Y444D02*
X1405Y444D01*
X657Y443D02*
X664Y443D01*
X1398Y443D02*
X1405Y443D01*
X657Y442D02*
X664Y442D01*
X1398Y442D02*
X1405Y442D01*
X657Y441D02*
X664Y441D01*
X1398Y441D02*
X1405Y441D01*
X657Y440D02*
X664Y440D01*
X1398Y440D02*
X1405Y440D01*
X657Y439D02*
X664Y439D01*
X1398Y439D02*
X1405Y439D01*
X657Y438D02*
X664Y438D01*
X1398Y438D02*
X1405Y438D01*
X657Y437D02*
X664Y437D01*
X1398Y437D02*
X1405Y437D01*
X657Y436D02*
X664Y436D01*
X1398Y436D02*
X1405Y436D01*
X657Y435D02*
X664Y435D01*
X1398Y435D02*
X1405Y435D01*
X657Y434D02*
X664Y434D01*
X1398Y434D02*
X1405Y434D01*
X657Y433D02*
X664Y433D01*
X1398Y433D02*
X1405Y433D01*
X657Y432D02*
X664Y432D01*
X1398Y432D02*
X1405Y432D01*
X657Y431D02*
X664Y431D01*
X1398Y431D02*
X1405Y431D01*
X657Y430D02*
X664Y430D01*
X1398Y430D02*
X1405Y430D01*
X657Y429D02*
X664Y429D01*
X1398Y429D02*
X1405Y429D01*
X657Y428D02*
X664Y428D01*
X1398Y428D02*
X1405Y428D01*
X657Y427D02*
X664Y427D01*
X1398Y427D02*
X1405Y427D01*
X657Y426D02*
X664Y426D01*
X1398Y426D02*
X1405Y426D01*
X657Y425D02*
X664Y425D01*
X1398Y425D02*
X1405Y425D01*
X657Y424D02*
X664Y424D01*
X1398Y424D02*
X1405Y424D01*
X657Y423D02*
X664Y423D01*
X1398Y423D02*
X1405Y423D01*
X657Y422D02*
X664Y422D01*
X1398Y422D02*
X1405Y422D01*
X657Y421D02*
X664Y421D01*
X1398Y421D02*
X1405Y421D01*
X657Y420D02*
X664Y420D01*
X1398Y420D02*
X1405Y420D01*
X657Y419D02*
X664Y419D01*
X1398Y419D02*
X1405Y419D01*
X657Y418D02*
X664Y418D01*
X1398Y418D02*
X1405Y418D01*
X657Y417D02*
X664Y417D01*
X1398Y417D02*
X1405Y417D01*
X657Y416D02*
X664Y416D01*
X1398Y416D02*
X1405Y416D01*
X657Y415D02*
X664Y415D01*
X1398Y415D02*
X1405Y415D01*
X657Y414D02*
X664Y414D01*
X1398Y414D02*
X1405Y414D01*
X657Y413D02*
X664Y413D01*
X1398Y413D02*
X1405Y413D01*
X657Y412D02*
X664Y412D01*
X1398Y412D02*
X1405Y412D01*
X657Y411D02*
X664Y411D01*
X1398Y411D02*
X1405Y411D01*
X657Y410D02*
X664Y410D01*
X1398Y410D02*
X1405Y410D01*
X657Y409D02*
X664Y409D01*
X1398Y409D02*
X1405Y409D01*
X657Y408D02*
X664Y408D01*
X1398Y408D02*
X1405Y408D01*
X657Y407D02*
X664Y407D01*
X1398Y407D02*
X1405Y407D01*
X657Y406D02*
X664Y406D01*
X1398Y406D02*
X1405Y406D01*
X657Y405D02*
X664Y405D01*
X1398Y405D02*
X1405Y405D01*
X657Y404D02*
X664Y404D01*
X1398Y404D02*
X1405Y404D01*
X657Y403D02*
X664Y403D01*
X1398Y403D02*
X1405Y403D01*
X657Y402D02*
X664Y402D01*
X1398Y402D02*
X1405Y402D01*
X657Y401D02*
X664Y401D01*
X1398Y401D02*
X1405Y401D01*
X657Y400D02*
X664Y400D01*
X1398Y400D02*
X1405Y400D01*
X657Y399D02*
X664Y399D01*
X1398Y399D02*
X1405Y399D01*
X657Y398D02*
X664Y398D01*
X1398Y398D02*
X1405Y398D01*
X657Y397D02*
X664Y397D01*
X1398Y397D02*
X1405Y397D01*
X657Y396D02*
X664Y396D01*
X1398Y396D02*
X1405Y396D01*
X657Y395D02*
X664Y395D01*
X1398Y395D02*
X1405Y395D01*
X657Y394D02*
X664Y394D01*
X1398Y394D02*
X1405Y394D01*
X657Y393D02*
X664Y393D01*
X1398Y393D02*
X1405Y393D01*
X657Y392D02*
X664Y392D01*
X1398Y392D02*
X1405Y392D01*
X657Y391D02*
X664Y391D01*
X1398Y391D02*
X1405Y391D01*
X657Y390D02*
X664Y390D01*
X1398Y390D02*
X1405Y390D01*
X657Y389D02*
X664Y389D01*
X1398Y389D02*
X1405Y389D01*
X657Y388D02*
X664Y388D01*
X1398Y388D02*
X1405Y388D01*
X657Y387D02*
X664Y387D01*
X1398Y387D02*
X1405Y387D01*
X657Y386D02*
X664Y386D01*
X1398Y386D02*
X1405Y386D01*
X657Y385D02*
X664Y385D01*
X1398Y385D02*
X1405Y385D01*
X657Y384D02*
X664Y384D01*
X1398Y384D02*
X1405Y384D01*
X657Y383D02*
X664Y383D01*
X1398Y383D02*
X1405Y383D01*
X657Y382D02*
X664Y382D01*
X1398Y382D02*
X1405Y382D01*
X657Y381D02*
X664Y381D01*
X1398Y381D02*
X1405Y381D01*
X657Y380D02*
X664Y380D01*
X1398Y380D02*
X1405Y380D01*
X657Y379D02*
X664Y379D01*
X1398Y379D02*
X1405Y379D01*
X657Y378D02*
X664Y378D01*
X1398Y378D02*
X1405Y378D01*
X657Y377D02*
X664Y377D01*
X1398Y377D02*
X1405Y377D01*
X657Y376D02*
X664Y376D01*
X1398Y376D02*
X1405Y376D01*
X657Y375D02*
X664Y375D01*
X1398Y375D02*
X1405Y375D01*
X657Y374D02*
X664Y374D01*
X1398Y374D02*
X1405Y374D01*
X657Y373D02*
X664Y373D01*
X1398Y373D02*
X1405Y373D01*
X657Y372D02*
X664Y372D01*
X1398Y372D02*
X1405Y372D01*
X657Y371D02*
X664Y371D01*
X1398Y371D02*
X1405Y371D01*
X657Y370D02*
X664Y370D01*
X1398Y370D02*
X1405Y370D01*
X657Y369D02*
X664Y369D01*
X1398Y369D02*
X1405Y369D01*
X657Y368D02*
X664Y368D01*
X1398Y368D02*
X1405Y368D01*
X657Y367D02*
X664Y367D01*
X1398Y367D02*
X1405Y367D01*
X657Y366D02*
X664Y366D01*
X1398Y366D02*
X1405Y366D01*
X657Y365D02*
X664Y365D01*
X1398Y365D02*
X1405Y365D01*
X657Y364D02*
X664Y364D01*
X1398Y364D02*
X1405Y364D01*
X657Y363D02*
X664Y363D01*
X1398Y363D02*
X1405Y363D01*
X657Y362D02*
X664Y362D01*
X1398Y362D02*
X1405Y362D01*
X657Y361D02*
X664Y361D01*
X1398Y361D02*
X1405Y361D01*
X657Y360D02*
X664Y360D01*
X1398Y360D02*
X1405Y360D01*
X657Y359D02*
X664Y359D01*
X1398Y359D02*
X1405Y359D01*
X657Y358D02*
X664Y358D01*
X1398Y358D02*
X1405Y358D01*
X657Y357D02*
X664Y357D01*
X1398Y357D02*
X1405Y357D01*
X657Y356D02*
X664Y356D01*
X1398Y356D02*
X1405Y356D01*
X657Y355D02*
X664Y355D01*
X1398Y355D02*
X1405Y355D01*
X657Y354D02*
X664Y354D01*
X1398Y354D02*
X1405Y354D01*
X657Y353D02*
X664Y353D01*
X1398Y353D02*
X1405Y353D01*
X657Y352D02*
X664Y352D01*
X1398Y352D02*
X1405Y352D01*
X657Y351D02*
X664Y351D01*
X1398Y351D02*
X1405Y351D01*
X657Y350D02*
X664Y350D01*
X1398Y350D02*
X1405Y350D01*
X657Y349D02*
X664Y349D01*
X1398Y349D02*
X1405Y349D01*
X657Y348D02*
X664Y348D01*
X1398Y348D02*
X1405Y348D01*
X657Y347D02*
X664Y347D01*
X1398Y347D02*
X1405Y347D01*
X657Y346D02*
X664Y346D01*
X1398Y346D02*
X1405Y346D01*
X657Y345D02*
X664Y345D01*
X1398Y345D02*
X1405Y345D01*
X657Y344D02*
X664Y344D01*
X1398Y344D02*
X1405Y344D01*
X657Y343D02*
X664Y343D01*
X1398Y343D02*
X1405Y343D01*
X657Y342D02*
X664Y342D01*
X1398Y342D02*
X1405Y342D01*
X657Y341D02*
X664Y341D01*
X1398Y341D02*
X1405Y341D01*
X657Y340D02*
X664Y340D01*
X1398Y340D02*
X1405Y340D01*
X657Y339D02*
X664Y339D01*
X1398Y339D02*
X1405Y339D01*
X657Y338D02*
X664Y338D01*
X1398Y338D02*
X1405Y338D01*
X657Y337D02*
X664Y337D01*
X1398Y337D02*
X1405Y337D01*
X657Y336D02*
X664Y336D01*
X1398Y336D02*
X1405Y336D01*
X657Y335D02*
X664Y335D01*
X1398Y335D02*
X1405Y335D01*
X657Y334D02*
X664Y334D01*
X1398Y334D02*
X1405Y334D01*
X657Y333D02*
X664Y333D01*
X1398Y333D02*
X1405Y333D01*
X657Y332D02*
X664Y332D01*
X1398Y332D02*
X1405Y332D01*
X657Y331D02*
X664Y331D01*
X1398Y331D02*
X1405Y331D01*
X657Y330D02*
X664Y330D01*
X1398Y330D02*
X1405Y330D01*
X657Y329D02*
X664Y329D01*
X1398Y329D02*
X1405Y329D01*
X657Y328D02*
X664Y328D01*
X1398Y328D02*
X1405Y328D01*
X657Y327D02*
X664Y327D01*
X1398Y327D02*
X1405Y327D01*
X657Y326D02*
X664Y326D01*
X1398Y326D02*
X1405Y326D01*
X657Y325D02*
X664Y325D01*
X1398Y325D02*
X1405Y325D01*
X657Y324D02*
X664Y324D01*
X1398Y324D02*
X1405Y324D01*
X657Y323D02*
X664Y323D01*
X1398Y323D02*
X1405Y323D01*
X657Y322D02*
X664Y322D01*
X1398Y322D02*
X1405Y322D01*
X657Y321D02*
X664Y321D01*
X1398Y321D02*
X1405Y321D01*
X657Y320D02*
X664Y320D01*
X1398Y320D02*
X1405Y320D01*
X657Y319D02*
X664Y319D01*
X1398Y319D02*
X1405Y319D01*
X657Y318D02*
X664Y318D01*
X1398Y318D02*
X1405Y318D01*
X657Y317D02*
X664Y317D01*
X1398Y317D02*
X1405Y317D01*
X657Y316D02*
X664Y316D01*
X1398Y316D02*
X1405Y316D01*
X657Y315D02*
X664Y315D01*
X1398Y315D02*
X1405Y315D01*
X657Y314D02*
X664Y314D01*
X1398Y314D02*
X1405Y314D01*
X657Y313D02*
X664Y313D01*
X1398Y313D02*
X1405Y313D01*
X657Y312D02*
X664Y312D01*
X1398Y312D02*
X1405Y312D01*
X657Y311D02*
X664Y311D01*
X1398Y311D02*
X1405Y311D01*
X657Y310D02*
X664Y310D01*
X1398Y310D02*
X1405Y310D01*
X657Y309D02*
X664Y309D01*
X1398Y309D02*
X1405Y309D01*
X657Y308D02*
X664Y308D01*
X1398Y308D02*
X1405Y308D01*
X657Y307D02*
X664Y307D01*
X1398Y307D02*
X1405Y307D01*
X657Y306D02*
X664Y306D01*
X1398Y306D02*
X1405Y306D01*
X657Y305D02*
X664Y305D01*
X1398Y305D02*
X1405Y305D01*
X657Y304D02*
X664Y304D01*
X1398Y304D02*
X1405Y304D01*
X657Y303D02*
X664Y303D01*
X1398Y303D02*
X1405Y303D01*
X657Y302D02*
X664Y302D01*
X1398Y302D02*
X1405Y302D01*
X657Y301D02*
X664Y301D01*
X1398Y301D02*
X1405Y301D01*
X657Y300D02*
X664Y300D01*
X1398Y300D02*
X1405Y300D01*
X657Y299D02*
X664Y299D01*
X1398Y299D02*
X1405Y299D01*
X657Y298D02*
X664Y298D01*
X1398Y298D02*
X1405Y298D01*
X657Y297D02*
X664Y297D01*
X1398Y297D02*
X1405Y297D01*
X657Y296D02*
X664Y296D01*
X1398Y296D02*
X1405Y296D01*
X657Y295D02*
X664Y295D01*
X1398Y295D02*
X1405Y295D01*
X657Y294D02*
X664Y294D01*
X1398Y294D02*
X1405Y294D01*
X657Y293D02*
X664Y293D01*
X1398Y293D02*
X1405Y293D01*
X657Y292D02*
X664Y292D01*
X1398Y292D02*
X1405Y292D01*
X657Y291D02*
X664Y291D01*
X1398Y291D02*
X1405Y291D01*
X657Y290D02*
X664Y290D01*
X1398Y290D02*
X1405Y290D01*
X657Y289D02*
X664Y289D01*
X1398Y289D02*
X1405Y289D01*
X657Y288D02*
X664Y288D01*
X1398Y288D02*
X1405Y288D01*
X657Y287D02*
X664Y287D01*
X1398Y287D02*
X1405Y287D01*
X657Y286D02*
X664Y286D01*
X1398Y286D02*
X1405Y286D01*
X657Y285D02*
X664Y285D01*
X1398Y285D02*
X1405Y285D01*
X657Y284D02*
X664Y284D01*
X1398Y284D02*
X1405Y284D01*
X657Y283D02*
X664Y283D01*
X1398Y283D02*
X1405Y283D01*
X657Y282D02*
X664Y282D01*
X1398Y282D02*
X1405Y282D01*
X657Y281D02*
X664Y281D01*
X1398Y281D02*
X1405Y281D01*
X657Y280D02*
X664Y280D01*
X1398Y280D02*
X1405Y280D01*
X657Y279D02*
X664Y279D01*
X1398Y279D02*
X1405Y279D01*
X657Y278D02*
X664Y278D01*
X1398Y278D02*
X1405Y278D01*
X657Y277D02*
X664Y277D01*
X1398Y277D02*
X1405Y277D01*
X657Y276D02*
X664Y276D01*
X1398Y276D02*
X1405Y276D01*
X657Y275D02*
X664Y275D01*
X1398Y275D02*
X1405Y275D01*
X657Y274D02*
X664Y274D01*
X1398Y274D02*
X1405Y274D01*
X657Y273D02*
X664Y273D01*
X1398Y273D02*
X1405Y273D01*
X657Y272D02*
X664Y272D01*
X1398Y272D02*
X1405Y272D01*
X657Y271D02*
X664Y271D01*
X1398Y271D02*
X1405Y271D01*
X657Y270D02*
X664Y270D01*
X1398Y270D02*
X1405Y270D01*
X657Y269D02*
X664Y269D01*
X1398Y269D02*
X1405Y269D01*
X657Y268D02*
X664Y268D01*
X1398Y268D02*
X1405Y268D01*
X657Y267D02*
X664Y267D01*
X1398Y267D02*
X1405Y267D01*
X657Y266D02*
X664Y266D01*
X1398Y266D02*
X1405Y266D01*
X657Y265D02*
X664Y265D01*
X1398Y265D02*
X1405Y265D01*
X657Y264D02*
X664Y264D01*
X1398Y264D02*
X1405Y264D01*
X657Y263D02*
X664Y263D01*
X1398Y263D02*
X1405Y263D01*
X657Y262D02*
X664Y262D01*
X1398Y262D02*
X1405Y262D01*
X657Y261D02*
X664Y261D01*
X1398Y261D02*
X1405Y261D01*
X657Y260D02*
X664Y260D01*
X1398Y260D02*
X1405Y260D01*
X657Y259D02*
X664Y259D01*
X1398Y259D02*
X1405Y259D01*
X657Y258D02*
X664Y258D01*
X1398Y258D02*
X1405Y258D01*
X657Y257D02*
X664Y257D01*
X1398Y257D02*
X1405Y257D01*
X657Y256D02*
X664Y256D01*
X1398Y256D02*
X1405Y256D01*
X657Y255D02*
X664Y255D01*
X1398Y255D02*
X1405Y255D01*
X657Y254D02*
X664Y254D01*
X1398Y254D02*
X1405Y254D01*
X657Y253D02*
X664Y253D01*
X1398Y253D02*
X1405Y253D01*
X657Y252D02*
X664Y252D01*
X1398Y252D02*
X1405Y252D01*
X657Y251D02*
X664Y251D01*
X1398Y251D02*
X1405Y251D01*
X657Y250D02*
X664Y250D01*
X1398Y250D02*
X1405Y250D01*
X657Y249D02*
X664Y249D01*
X1398Y249D02*
X1405Y249D01*
X657Y248D02*
X664Y248D01*
X1398Y248D02*
X1405Y248D01*
X657Y247D02*
X664Y247D01*
X1398Y247D02*
X1405Y247D01*
X657Y246D02*
X664Y246D01*
X1398Y246D02*
X1405Y246D01*
X657Y245D02*
X664Y245D01*
X1398Y245D02*
X1405Y245D01*
X657Y244D02*
X664Y244D01*
X1398Y244D02*
X1405Y244D01*
X657Y243D02*
X664Y243D01*
X1398Y243D02*
X1405Y243D01*
X657Y242D02*
X664Y242D01*
X1398Y242D02*
X1405Y242D01*
X657Y241D02*
X664Y241D01*
X1398Y241D02*
X1405Y241D01*
X657Y240D02*
X664Y240D01*
X1398Y240D02*
X1405Y240D01*
X657Y239D02*
X664Y239D01*
X1398Y239D02*
X1405Y239D01*
X657Y238D02*
X664Y238D01*
X1398Y238D02*
X1405Y238D01*
X657Y237D02*
X664Y237D01*
X1398Y237D02*
X1405Y237D01*
X657Y236D02*
X664Y236D01*
X1398Y236D02*
X1405Y236D01*
X657Y235D02*
X664Y235D01*
X1398Y235D02*
X1405Y235D01*
X657Y234D02*
X664Y234D01*
X1398Y234D02*
X1405Y234D01*
X657Y233D02*
X664Y233D01*
X1398Y233D02*
X1405Y233D01*
X657Y232D02*
X664Y232D01*
X1398Y232D02*
X1405Y232D01*
X657Y231D02*
X664Y231D01*
X1398Y231D02*
X1405Y231D01*
X657Y230D02*
X664Y230D01*
X1398Y230D02*
X1405Y230D01*
X657Y229D02*
X664Y229D01*
X1398Y229D02*
X1405Y229D01*
X657Y228D02*
X664Y228D01*
X1398Y228D02*
X1405Y228D01*
X657Y227D02*
X664Y227D01*
X1398Y227D02*
X1405Y227D01*
X657Y226D02*
X664Y226D01*
X1398Y226D02*
X1405Y226D01*
X657Y225D02*
X664Y225D01*
X1398Y225D02*
X1405Y225D01*
X657Y224D02*
X664Y224D01*
X1398Y224D02*
X1405Y224D01*
X657Y223D02*
X664Y223D01*
X1398Y223D02*
X1405Y223D01*
X657Y222D02*
X664Y222D01*
X1398Y222D02*
X1405Y222D01*
X657Y221D02*
X664Y221D01*
X1398Y221D02*
X1405Y221D01*
X657Y220D02*
X664Y220D01*
X1398Y220D02*
X1405Y220D01*
X657Y219D02*
X664Y219D01*
X1398Y219D02*
X1405Y219D01*
X657Y218D02*
X664Y218D01*
X1398Y218D02*
X1405Y218D01*
X657Y217D02*
X664Y217D01*
X1398Y217D02*
X1405Y217D01*
X657Y216D02*
X664Y216D01*
X1398Y216D02*
X1405Y216D01*
X657Y215D02*
X664Y215D01*
X1398Y215D02*
X1405Y215D01*
X657Y214D02*
X664Y214D01*
X1398Y214D02*
X1405Y214D01*
X657Y213D02*
X664Y213D01*
X1398Y213D02*
X1405Y213D01*
X657Y212D02*
X664Y212D01*
X1398Y212D02*
X1405Y212D01*
X657Y211D02*
X664Y211D01*
X1398Y211D02*
X1405Y211D01*
X657Y210D02*
X664Y210D01*
X1398Y210D02*
X1405Y210D01*
X657Y209D02*
X664Y209D01*
X1398Y209D02*
X1405Y209D01*
X657Y208D02*
X664Y208D01*
X1398Y208D02*
X1405Y208D01*
X657Y207D02*
X664Y207D01*
X1398Y207D02*
X1405Y207D01*
X657Y206D02*
X664Y206D01*
X1398Y206D02*
X1405Y206D01*
X657Y205D02*
X664Y205D01*
X1398Y205D02*
X1405Y205D01*
X657Y204D02*
X664Y204D01*
X1398Y204D02*
X1405Y204D01*
X657Y203D02*
X664Y203D01*
X899Y203D02*
X1207Y203D01*
X1398Y203D02*
X1405Y203D01*
X657Y202D02*
X664Y202D01*
X899Y202D02*
X1208Y202D01*
X1398Y202D02*
X1405Y202D01*
X657Y201D02*
X664Y201D01*
X899Y201D02*
X1208Y201D01*
X1398Y201D02*
X1405Y201D01*
X657Y200D02*
X664Y200D01*
X899Y200D02*
X1208Y200D01*
X1398Y200D02*
X1405Y200D01*
X657Y199D02*
X664Y199D01*
X899Y199D02*
X1208Y199D01*
X1398Y199D02*
X1405Y199D01*
X657Y198D02*
X664Y198D01*
X899Y198D02*
X1208Y198D01*
X1398Y198D02*
X1405Y198D01*
X657Y197D02*
X664Y197D01*
X899Y197D02*
X1208Y197D01*
X1398Y197D02*
X1405Y197D01*
X657Y196D02*
X664Y196D01*
X899Y196D02*
X1208Y196D01*
X1398Y196D02*
X1405Y196D01*
X657Y195D02*
X664Y195D01*
X899Y195D02*
X906Y195D01*
X1200Y195D02*
X1208Y195D01*
X1398Y195D02*
X1405Y195D01*
X657Y194D02*
X664Y194D01*
X899Y194D02*
X906Y194D01*
X1201Y194D02*
X1208Y194D01*
X1398Y194D02*
X1405Y194D01*
X657Y193D02*
X664Y193D01*
X899Y193D02*
X906Y193D01*
X1201Y193D02*
X1208Y193D01*
X1398Y193D02*
X1405Y193D01*
X657Y192D02*
X664Y192D01*
X899Y192D02*
X906Y192D01*
X1201Y192D02*
X1208Y192D01*
X1398Y192D02*
X1405Y192D01*
X657Y191D02*
X664Y191D01*
X899Y191D02*
X906Y191D01*
X1201Y191D02*
X1208Y191D01*
X1398Y191D02*
X1405Y191D01*
X657Y190D02*
X664Y190D01*
X899Y190D02*
X906Y190D01*
X1201Y190D02*
X1208Y190D01*
X1398Y190D02*
X1405Y190D01*
X657Y189D02*
X664Y189D01*
X899Y189D02*
X906Y189D01*
X1201Y189D02*
X1208Y189D01*
X1398Y189D02*
X1405Y189D01*
X657Y188D02*
X664Y188D01*
X899Y188D02*
X906Y188D01*
X1201Y188D02*
X1208Y188D01*
X1398Y188D02*
X1405Y188D01*
X657Y187D02*
X664Y187D01*
X899Y187D02*
X906Y187D01*
X1201Y187D02*
X1208Y187D01*
X1398Y187D02*
X1405Y187D01*
X657Y186D02*
X664Y186D01*
X899Y186D02*
X906Y186D01*
X1201Y186D02*
X1208Y186D01*
X1398Y186D02*
X1405Y186D01*
X657Y185D02*
X664Y185D01*
X899Y185D02*
X906Y185D01*
X1201Y185D02*
X1208Y185D01*
X1398Y185D02*
X1405Y185D01*
X657Y184D02*
X664Y184D01*
X899Y184D02*
X906Y184D01*
X1201Y184D02*
X1208Y184D01*
X1398Y184D02*
X1405Y184D01*
X657Y183D02*
X664Y183D01*
X899Y183D02*
X906Y183D01*
X1201Y183D02*
X1208Y183D01*
X1398Y183D02*
X1405Y183D01*
X657Y182D02*
X664Y182D01*
X899Y182D02*
X906Y182D01*
X1201Y182D02*
X1208Y182D01*
X1398Y182D02*
X1405Y182D01*
X657Y181D02*
X664Y181D01*
X899Y181D02*
X906Y181D01*
X1201Y181D02*
X1208Y181D01*
X1398Y181D02*
X1405Y181D01*
X657Y180D02*
X664Y180D01*
X899Y180D02*
X906Y180D01*
X1201Y180D02*
X1208Y180D01*
X1398Y180D02*
X1405Y180D01*
X657Y179D02*
X664Y179D01*
X899Y179D02*
X906Y179D01*
X1201Y179D02*
X1208Y179D01*
X1398Y179D02*
X1405Y179D01*
X657Y178D02*
X664Y178D01*
X899Y178D02*
X906Y178D01*
X1201Y178D02*
X1208Y178D01*
X1398Y178D02*
X1405Y178D01*
X657Y177D02*
X664Y177D01*
X899Y177D02*
X906Y177D01*
X1201Y177D02*
X1208Y177D01*
X1398Y177D02*
X1405Y177D01*
X657Y176D02*
X664Y176D01*
X899Y176D02*
X906Y176D01*
X1201Y176D02*
X1208Y176D01*
X1398Y176D02*
X1405Y176D01*
X656Y175D02*
X664Y175D01*
X899Y175D02*
X906Y175D01*
X1200Y175D02*
X1208Y175D01*
X1398Y175D02*
X1405Y175D01*
X657Y174D02*
X664Y174D01*
X899Y174D02*
X906Y174D01*
X1201Y174D02*
X1208Y174D01*
X1398Y174D02*
X1405Y174D01*
X657Y173D02*
X664Y173D01*
X899Y173D02*
X906Y173D01*
X1200Y173D02*
X1208Y173D01*
X1398Y173D02*
X1405Y173D01*
X657Y172D02*
X663Y172D01*
X899Y172D02*
X906Y172D01*
X1200Y172D02*
X1207Y172D01*
X1398Y172D02*
X1405Y172D01*
X656Y171D02*
X663Y171D01*
X899Y171D02*
X906Y171D01*
X1200Y171D02*
X1207Y171D01*
X1398Y171D02*
X1405Y171D01*
X656Y170D02*
X663Y170D01*
X899Y170D02*
X906Y170D01*
X1200Y170D02*
X1207Y170D01*
X1398Y170D02*
X1405Y170D01*
X657Y169D02*
X663Y169D01*
X899Y169D02*
X906Y169D01*
X1200Y169D02*
X1207Y169D01*
X1398Y169D02*
X1405Y169D01*
X657Y168D02*
X664Y168D01*
X899Y168D02*
X906Y168D01*
X1201Y168D02*
X1208Y168D01*
X1398Y168D02*
X1405Y168D01*
X657Y167D02*
X664Y167D01*
X899Y167D02*
X906Y167D01*
X1201Y167D02*
X1208Y167D01*
X1398Y167D02*
X1405Y167D01*
X657Y166D02*
X664Y166D01*
X899Y166D02*
X906Y166D01*
X1201Y166D02*
X1208Y166D01*
X1398Y166D02*
X1405Y166D01*
X657Y165D02*
X664Y165D01*
X899Y165D02*
X906Y165D01*
X1201Y165D02*
X1208Y165D01*
X1398Y165D02*
X1405Y165D01*
X657Y164D02*
X664Y164D01*
X899Y164D02*
X906Y164D01*
X1201Y164D02*
X1208Y164D01*
X1398Y164D02*
X1405Y164D01*
X657Y163D02*
X664Y163D01*
X899Y163D02*
X906Y163D01*
X1201Y163D02*
X1208Y163D01*
X1398Y163D02*
X1405Y163D01*
X657Y162D02*
X664Y162D01*
X898Y162D02*
X905Y162D01*
X1201Y162D02*
X1208Y162D01*
X1398Y162D02*
X1405Y162D01*
X657Y161D02*
X664Y161D01*
X898Y161D02*
X905Y161D01*
X1201Y161D02*
X1208Y161D01*
X1398Y161D02*
X1405Y161D01*
X657Y160D02*
X664Y160D01*
X898Y160D02*
X905Y160D01*
X1201Y160D02*
X1208Y160D01*
X1398Y160D02*
X1405Y160D01*
X657Y159D02*
X664Y159D01*
X898Y159D02*
X905Y159D01*
X1201Y159D02*
X1208Y159D01*
X1398Y159D02*
X1405Y159D01*
X657Y158D02*
X664Y158D01*
X898Y158D02*
X905Y158D01*
X1201Y158D02*
X1208Y158D01*
X1397Y158D02*
X1404Y158D01*
X658Y157D02*
X665Y157D01*
X898Y157D02*
X905Y157D01*
X1202Y157D02*
X1209Y157D01*
X1397Y157D02*
X1404Y157D01*
X658Y156D02*
X665Y156D01*
X898Y156D02*
X905Y156D01*
X1202Y156D02*
X1209Y156D01*
X1397Y156D02*
X1404Y156D01*
X658Y155D02*
X665Y155D01*
X898Y155D02*
X905Y155D01*
X1202Y155D02*
X1209Y155D01*
X1397Y155D02*
X1404Y155D01*
X658Y154D02*
X665Y154D01*
X897Y154D02*
X904Y154D01*
X1202Y154D02*
X1209Y154D01*
X1397Y154D02*
X1404Y154D01*
X658Y153D02*
X665Y153D01*
X897Y153D02*
X904Y153D01*
X1202Y153D02*
X1209Y153D01*
X1397Y153D02*
X1404Y153D01*
X658Y152D02*
X665Y152D01*
X897Y152D02*
X904Y152D01*
X1202Y152D02*
X1209Y152D01*
X1396Y152D02*
X1403Y152D01*
X659Y151D02*
X666Y151D01*
X897Y151D02*
X904Y151D01*
X1203Y151D02*
X1210Y151D01*
X1396Y151D02*
X1403Y151D01*
X659Y150D02*
X666Y150D01*
X896Y150D02*
X904Y150D01*
X1203Y150D02*
X1210Y150D01*
X1396Y150D02*
X1403Y150D01*
X659Y149D02*
X666Y149D01*
X896Y149D02*
X903Y149D01*
X1203Y149D02*
X1210Y149D01*
X1396Y149D02*
X1403Y149D01*
X659Y148D02*
X666Y148D01*
X896Y148D02*
X903Y148D01*
X1203Y148D02*
X1210Y148D01*
X1395Y148D02*
X1403Y148D01*
X660Y147D02*
X667Y147D01*
X896Y147D02*
X903Y147D01*
X1204Y147D02*
X1211Y147D01*
X1395Y147D02*
X1402Y147D01*
X660Y146D02*
X667Y146D01*
X895Y146D02*
X903Y146D01*
X1204Y146D02*
X1211Y146D01*
X1395Y146D02*
X1402Y146D01*
X660Y145D02*
X667Y145D01*
X895Y145D02*
X902Y145D01*
X1204Y145D02*
X1211Y145D01*
X1395Y145D02*
X1402Y145D01*
X660Y144D02*
X668Y144D01*
X895Y144D02*
X902Y144D01*
X1204Y144D02*
X1212Y144D01*
X1394Y144D02*
X1402Y144D01*
X661Y143D02*
X668Y143D01*
X895Y143D02*
X902Y143D01*
X1205Y143D02*
X1212Y143D01*
X1394Y143D02*
X1401Y143D01*
X661Y142D02*
X668Y142D01*
X894Y142D02*
X901Y142D01*
X1205Y142D02*
X1212Y142D01*
X1394Y142D02*
X1401Y142D01*
X661Y141D02*
X668Y141D01*
X894Y141D02*
X901Y141D01*
X1205Y141D02*
X1212Y141D01*
X1393Y141D02*
X1401Y141D01*
X662Y140D02*
X669Y140D01*
X893Y140D02*
X901Y140D01*
X1206Y140D02*
X1213Y140D01*
X1393Y140D02*
X1400Y140D01*
X662Y139D02*
X669Y139D01*
X893Y139D02*
X900Y139D01*
X1206Y139D02*
X1213Y139D01*
X1393Y139D02*
X1400Y139D01*
X662Y138D02*
X670Y138D01*
X893Y138D02*
X900Y138D01*
X1206Y138D02*
X1214Y138D01*
X1392Y138D02*
X1400Y138D01*
X663Y137D02*
X670Y137D01*
X892Y137D02*
X900Y137D01*
X1207Y137D02*
X1214Y137D01*
X1392Y137D02*
X1399Y137D01*
X663Y136D02*
X670Y136D01*
X892Y136D02*
X899Y136D01*
X1207Y136D02*
X1214Y136D01*
X1391Y136D02*
X1399Y136D01*
X663Y135D02*
X671Y135D01*
X891Y135D02*
X899Y135D01*
X1207Y135D02*
X1215Y135D01*
X1391Y135D02*
X1399Y135D01*
X664Y134D02*
X671Y134D01*
X891Y134D02*
X899Y134D01*
X1208Y134D02*
X1215Y134D01*
X1390Y134D02*
X1398Y134D01*
X664Y133D02*
X672Y133D01*
X891Y133D02*
X898Y133D01*
X1208Y133D02*
X1216Y133D01*
X1390Y133D02*
X1398Y133D01*
X665Y132D02*
X672Y132D01*
X890Y132D02*
X898Y132D01*
X1209Y132D02*
X1216Y132D01*
X1390Y132D02*
X1397Y132D01*
X665Y131D02*
X673Y131D01*
X890Y131D02*
X897Y131D01*
X1209Y131D02*
X1217Y131D01*
X1389Y131D02*
X1397Y131D01*
X665Y130D02*
X673Y130D01*
X889Y130D02*
X897Y130D01*
X1209Y130D02*
X1217Y130D01*
X1389Y130D02*
X1396Y130D01*
X666Y129D02*
X674Y129D01*
X889Y129D02*
X896Y129D01*
X1210Y129D02*
X1218Y129D01*
X1388Y129D02*
X1396Y129D01*
X666Y128D02*
X674Y128D01*
X888Y128D02*
X896Y128D01*
X1210Y128D02*
X1218Y128D01*
X1388Y128D02*
X1395Y128D01*
X667Y127D02*
X675Y127D01*
X888Y127D02*
X895Y127D01*
X1211Y127D02*
X1219Y127D01*
X1387Y127D02*
X1395Y127D01*
X667Y126D02*
X675Y126D01*
X887Y126D02*
X895Y126D01*
X1211Y126D02*
X1219Y126D01*
X1386Y126D02*
X1394Y126D01*
X668Y125D02*
X676Y125D01*
X886Y125D02*
X894Y125D01*
X1212Y125D02*
X1220Y125D01*
X1386Y125D02*
X1394Y125D01*
X668Y124D02*
X677Y124D01*
X886Y124D02*
X894Y124D01*
X1212Y124D02*
X1221Y124D01*
X1385Y124D02*
X1393Y124D01*
X669Y123D02*
X677Y123D01*
X885Y123D02*
X893Y123D01*
X1213Y123D02*
X1221Y123D01*
X1385Y123D02*
X1393Y123D01*
X670Y122D02*
X678Y122D01*
X885Y122D02*
X893Y122D01*
X1213Y122D02*
X1222Y122D01*
X1384Y122D02*
X1392Y122D01*
X670Y121D02*
X678Y121D01*
X884Y121D02*
X892Y121D01*
X1214Y121D02*
X1222Y121D01*
X1384Y121D02*
X1392Y121D01*
X671Y120D02*
X679Y120D01*
X883Y120D02*
X892Y120D01*
X1215Y120D02*
X1223Y120D01*
X1383Y120D02*
X1391Y120D01*
X671Y119D02*
X680Y119D01*
X883Y119D02*
X891Y119D01*
X1215Y119D02*
X1224Y119D01*
X1382Y119D02*
X1391Y119D01*
X672Y118D02*
X681Y118D01*
X882Y118D02*
X890Y118D01*
X1216Y118D02*
X1225Y118D01*
X1381Y118D02*
X1390Y118D01*
X673Y117D02*
X681Y117D01*
X881Y117D02*
X890Y117D01*
X1216Y117D02*
X1225Y117D01*
X1381Y117D02*
X1389Y117D01*
X673Y116D02*
X682Y116D01*
X880Y116D02*
X889Y116D01*
X1217Y116D02*
X1226Y116D01*
X1380Y116D02*
X1389Y116D01*
X674Y115D02*
X683Y115D01*
X880Y115D02*
X889Y115D01*
X1218Y115D02*
X1227Y115D01*
X1379Y115D02*
X1388Y115D01*
X675Y114D02*
X683Y114D01*
X879Y114D02*
X888Y114D01*
X1219Y114D02*
X1227Y114D01*
X1378Y114D02*
X1387Y114D01*
X675Y113D02*
X684Y113D01*
X878Y113D02*
X887Y113D01*
X1219Y113D02*
X1228Y113D01*
X1378Y113D02*
X1387Y113D01*
X676Y112D02*
X685Y112D01*
X877Y112D02*
X886Y112D01*
X1220Y112D02*
X1229Y112D01*
X1377Y112D02*
X1386Y112D01*
X677Y111D02*
X686Y111D01*
X876Y111D02*
X886Y111D01*
X1221Y111D02*
X1230Y111D01*
X1376Y111D02*
X1385Y111D01*
X677Y110D02*
X687Y110D01*
X875Y110D02*
X885Y110D01*
X1221Y110D02*
X1231Y110D01*
X1375Y110D02*
X1384Y110D01*
X678Y109D02*
X688Y109D01*
X875Y109D02*
X884Y109D01*
X1222Y109D02*
X1232Y109D01*
X1374Y109D02*
X1384Y109D01*
X679Y108D02*
X689Y108D01*
X874Y108D02*
X883Y108D01*
X1223Y108D02*
X1233Y108D01*
X1373Y108D02*
X1383Y108D01*
X680Y107D02*
X690Y107D01*
X873Y107D02*
X883Y107D01*
X1224Y107D02*
X1234Y107D01*
X1372Y107D02*
X1382Y107D01*
X681Y106D02*
X691Y106D01*
X872Y106D02*
X882Y106D01*
X1225Y106D02*
X1235Y106D01*
X1371Y106D02*
X1381Y106D01*
X682Y105D02*
X692Y105D01*
X871Y105D02*
X881Y105D01*
X1226Y105D02*
X1236Y105D01*
X1370Y105D02*
X1380Y105D01*
X682Y104D02*
X693Y104D01*
X870Y104D02*
X880Y104D01*
X1226Y104D02*
X1237Y104D01*
X1369Y104D02*
X1379Y104D01*
X683Y103D02*
X694Y103D01*
X868Y103D02*
X879Y103D01*
X1227Y103D02*
X1238Y103D01*
X1368Y103D02*
X1378Y103D01*
X684Y102D02*
X695Y102D01*
X867Y102D02*
X878Y102D01*
X1228Y102D02*
X1239Y102D01*
X1367Y102D02*
X1378Y102D01*
X685Y101D02*
X696Y101D01*
X866Y101D02*
X877Y101D01*
X1229Y101D02*
X1240Y101D01*
X1366Y101D02*
X1377Y101D01*
X686Y100D02*
X697Y100D01*
X865Y100D02*
X876Y100D01*
X1230Y100D02*
X1241Y100D01*
X1365Y100D02*
X1376Y100D01*
X687Y99D02*
X699Y99D01*
X864Y99D02*
X875Y99D01*
X1231Y99D02*
X1243Y99D01*
X1363Y99D02*
X1375Y99D01*
X688Y98D02*
X700Y98D01*
X862Y98D02*
X874Y98D01*
X1232Y98D02*
X1244Y98D01*
X1362Y98D02*
X1373Y98D01*
X689Y97D02*
X701Y97D01*
X861Y97D02*
X873Y97D01*
X1233Y97D02*
X1245Y97D01*
X1361Y97D02*
X1372Y97D01*
X691Y96D02*
X703Y96D01*
X860Y96D02*
X872Y96D01*
X1235Y96D02*
X1247Y96D01*
X1359Y96D02*
X1371Y96D01*
X692Y95D02*
X704Y95D01*
X858Y95D02*
X871Y95D01*
X1236Y95D02*
X1248Y95D01*
X1358Y95D02*
X1370Y95D01*
X693Y94D02*
X705Y94D01*
X857Y94D02*
X869Y94D01*
X1237Y94D02*
X1249Y94D01*
X1356Y94D02*
X1369Y94D01*
X694Y93D02*
X707Y93D01*
X855Y93D02*
X868Y93D01*
X1238Y93D02*
X1251Y93D01*
X1355Y93D02*
X1368Y93D01*
X696Y92D02*
X709Y92D01*
X854Y92D02*
X867Y92D01*
X1240Y92D02*
X1253Y92D01*
X1353Y92D02*
X1366Y92D01*
X697Y91D02*
X710Y91D01*
X852Y91D02*
X866Y91D01*
X1241Y91D02*
X1254Y91D01*
X1351Y91D02*
X1365Y91D01*
X698Y90D02*
X712Y90D01*
X850Y90D02*
X864Y90D01*
X1242Y90D02*
X1256Y90D01*
X1350Y90D02*
X1364Y90D01*
X700Y89D02*
X714Y89D01*
X848Y89D02*
X863Y89D01*
X1244Y89D02*
X1258Y89D01*
X1348Y89D02*
X1362Y89D01*
X701Y88D02*
X716Y88D01*
X846Y88D02*
X861Y88D01*
X1245Y88D02*
X1260Y88D01*
X1346Y88D02*
X1361Y88D01*
X703Y87D02*
X718Y87D01*
X844Y87D02*
X860Y87D01*
X1247Y87D02*
X1262Y87D01*
X1343Y87D02*
X1359Y87D01*
X704Y86D02*
X721Y86D01*
X842Y86D02*
X858Y86D01*
X1248Y86D02*
X1265Y86D01*
X1341Y86D02*
X1358Y86D01*
X706Y85D02*
X723Y85D01*
X839Y85D02*
X856Y85D01*
X1250Y85D02*
X1267Y85D01*
X1339Y85D02*
X1356Y85D01*
X708Y84D02*
X726Y84D01*
X836Y84D02*
X855Y84D01*
X1252Y84D02*
X1270Y84D01*
X1336Y84D02*
X1354Y84D01*
X710Y83D02*
X729Y83D01*
X833Y83D02*
X853Y83D01*
X1254Y83D02*
X1273Y83D01*
X1333Y83D02*
X1352Y83D01*
X711Y82D02*
X733Y82D01*
X830Y82D02*
X851Y82D01*
X1255Y82D02*
X1277Y82D01*
X1329Y82D02*
X1350Y82D01*
X714Y81D02*
X737Y81D01*
X825Y81D02*
X849Y81D01*
X1258Y81D02*
X1281Y81D01*
X1325Y81D02*
X1348Y81D01*
X716Y80D02*
X743Y80D01*
X819Y80D02*
X847Y80D01*
X1260Y80D02*
X1287Y80D01*
X1318Y80D02*
X1346Y80D01*
X718Y79D02*
X844Y79D01*
X1262Y79D02*
X1344Y79D01*
X721Y78D02*
X842Y78D01*
X1265Y78D02*
X1341Y78D01*
X723Y77D02*
X839Y77D01*
X1267Y77D02*
X1339Y77D01*
X726Y76D02*
X836Y76D01*
X1270Y76D02*
X1336Y76D01*
X730Y75D02*
X833Y75D01*
X1274Y75D02*
X1332Y75D01*
X733Y74D02*
X829Y74D01*
X1277Y74D02*
X1328Y74D01*
X738Y73D02*
X824Y73D01*
X1282Y73D02*
X1324Y73D01*
X744Y72D02*
X818Y72D01*
X1288Y72D02*
X1318Y72D01*
D02*
G04 End of Silk1*
M02*