; NON-PLATED HOLES START AT T1
; THROUGH (PLATED) HOLES START AT T100
M48
INCH
T100C0.031496
T101C0.040639
T102C0.039370
T103C0.086614
%
T100
X003166Y010707
X002166Y009707
X001166Y002707
X005166Y004707
T101
X001166Y013707
X005166Y014707
X011167Y014707
X020167Y013707
X004166Y014707
X009166Y014707
X002166Y014707
X019166Y013707
X014166Y013707
X015167Y013707
X014166Y014707
X017167Y013707
X008166Y013707
X007166Y014707
X006166Y013707
X016167Y013707
X010167Y014707
X009166Y013707
X002166Y013707
X018167Y013707
X012167Y013707
X013167Y013707
X019166Y014707
X011167Y013707
X003166Y013707
X013167Y014707
X015167Y014707
X003166Y014707
X006166Y014707
X001166Y014707
X004166Y013707
X010167Y013707
X020167Y014707
X012167Y014707
X018167Y014707
X008166Y014707
X016167Y014707
X017167Y014707
X005166Y013707
X007166Y013707
T102
X007167Y009707
X007167Y003707
X007167Y007707
X007167Y005707
X007167Y010707
X007167Y006707
X007167Y008707
X007167Y002707
X007167Y004707
T103
X013067Y001707
X008017Y011707
X008017Y001707
X013067Y011707
T00
M30
